<svg width="463" height="396" viewBox="0 0 463 396" fill="none" xmlns="http://www.w3.org/2000/svg">
<g clip-path="url(#clip0_17_1198)">
<path d="M462.86 193.82C462.86 203.43 461.81 213 459.53 222.3C458.78 225.36 457.88 228.41 456.85 231.41C456.55 232.27 456.25 233.13 455.93 233.98C455.67 234.68 455.4 235.38 455.13 236.07C455.05 236.26 454.98 236.45 454.9 236.64C454.61 237.36 454.32 238.08 454.01 238.79C453.96 238.9 453.91 239.02 453.86 239.14C453.56 239.84 453.25 240.54 452.94 241.23C452.8 241.54 452.66 241.84 452.52 242.14C452.24 242.76 451.95 243.37 451.65 243.98C451.34 244.63 451.02 245.27 450.7 245.91C450.58 246.14 450.47 246.37 450.35 246.59C450.07 247.14 449.78 247.69 449.5 248.24C449.27 248.67 449.04 249.09 448.81 249.51C447.75 251.47 446.64 253.4 445.48 255.31C445.01 256.09 444.53 256.87 444.04 257.64C443.93 257.83 443.81 258.02 443.69 258.21C443.13 259.09 442.56 259.97 441.98 260.85C441.51 261.56 441.04 262.27 440.55 262.98C440.13 263.6 439.71 264.21 439.28 264.83C439.19 264.96 439.1 265.09 439 265.22C438.56 265.86 438.1 266.5 437.65 267.14C437.09 267.93 436.52 268.7 435.95 269.48C435.83 269.64 435.72 269.8 435.6 269.95C434.95 270.84 434.28 271.72 433.62 272.59C433.22 273.11 432.82 273.64 432.41 274.15C431.69 275.1 430.95 276.04 430.2 276.98C429.49 277.88 428.77 278.77 428.04 279.66C427.96 279.76 427.88 279.85 427.8 279.95C427.08 280.84 426.36 281.72 425.62 282.6C425.41 282.87 425.18 283.14 424.96 283.4C424.29 284.21 423.61 285.02 422.93 285.82C420.97 288.14 418.99 290.44 417 292.72C412.95 297.38 408.81 302.01 404.59 306.61C401.08 310.41 397.52 314.19 393.89 317.9C376.47 335.79 357.61 352.48 337.1 365.78C334.55 367.43 331.98 369.04 329.38 370.57C328.43 371.13 327.48 371.69 326.53 372.24C326.37 372.33 326.2 372.43 326.04 372.52C325.06 373.08 324.08 373.63 323.09 374.17C322.08 374.73 321.07 375.28 320.05 375.81L318.67 376.53C316.68 377.57 314.67 378.57 312.64 379.53C311.55 380.05 310.46 380.55 309.36 381.04C308.35 381.5 307.33 381.95 306.31 382.39C305.89 382.57 305.48 382.75 305.06 382.92C304.13 383.32 303.19 383.7 302.25 384.08C300.44 384.81 298.61 385.51 296.77 386.17C296.07 386.43 295.36 386.68 294.65 386.93C294.25 387.07 293.85 387.2 293.45 387.34C292.79 387.56 292.13 387.78 291.47 387.99C290.9 388.18 290.32 388.36 289.75 388.54C289.73 388.55 289.71 388.55 289.69 388.56C288.56 388.91 287.43 389.25 286.3 389.58C284.51 390.1 282.72 390.58 280.92 391.04C279.73 391.34 278.54 391.62 277.34 391.89C276.21 392.15 275.08 392.39 273.94 392.63C273.85 392.65 273.76 392.67 273.67 392.68C272.49 392.92 271.3 393.15 270.11 393.36C269.5 393.47 268.9 393.57 268.29 393.67C267.68 393.77 267.07 393.87 266.45 393.96C265.9 394.05 265.34 394.13 264.79 394.2C264.12 394.3 263.44 394.39 262.77 394.48C255.66 395.39 248.53 395.77 241.4 395.69C240.97 395.69 240.55 395.68 240.12 395.67C233.66 395.55 227.2 395.05 220.77 394.22C220.3 394.16 219.83 394.1 219.36 394.03C218.55 393.92 217.74 393.81 216.93 393.69L215.04 393.39C212.37 392.97 209.72 392.49 207.07 391.95C206.48 391.84 205.9 391.72 205.32 391.59C203.54 391.22 201.75 390.82 199.98 390.4C198.79 390.12 197.61 389.83 196.43 389.53C195.84 389.38 195.25 389.23 194.66 389.07C194.07 388.92 193.48 388.76 192.89 388.6C190.54 387.97 188.2 387.29 185.87 386.58C183.16 385.76 180.47 384.89 177.79 383.97C176.82 383.64 175.84 383.3 174.87 382.96C171.86 381.89 168.85 380.76 165.88 379.59C165.35 379.38 164.81 379.16 164.25 378.93C163.82 378.75 163.39 378.56 162.94 378.36C162.65 378.23 162.36 378.1 162.06 377.96C160.12 377.08 158.01 376.05 155.74 374.89C155.36 374.69 154.97 374.49 154.58 374.29C153.19 373.56 151.74 372.79 150.25 371.97C147.12 370.25 143.77 368.35 140.25 366.28C100.24 342.74 38.99 298.56 24.61 281.81C23.88 280.96 23.17 280.1 22.46 279.23C21.91 278.55 21.36 277.86 20.83 277.16C20.34 276.53 19.86 275.9 19.39 275.25C18.97 274.69 18.56 274.12 18.16 273.54C17.78 273.01 17.4 272.47 17.03 271.93C17.01 271.89 16.98 271.85 16.95 271.81C16.5 271.14 16.05 270.47 15.61 269.79C15.19 269.14 14.77 268.49 14.37 267.83C14.17 267.52 13.98 267.2 13.79 266.88C13.34 266.14 12.9 265.4 12.47 264.66C12.47 264.66 12.4667 264.653 12.46 264.64C12 263.82 11.54 263 11.09 262.17C10.31 260.72 9.56002 259.26 8.86002 257.78C8.68002 257.4 8.50002 257.01 8.32002 256.63C6.90002 253.59 5.65002 250.49 4.58002 247.34C4.19002 246.24 3.84002 245.13 3.50002 244.02C3.07002 242.59 2.68002 241.15 2.32002 239.71C2.25002 239.42 2.18002 239.14 2.12002 238.85C1.94002 238.1 1.77002 237.34 1.62002 236.58C1.39002 235.52 1.20002 234.46 1.02002 233.39C0.98002 233.13 0.930019 232.87 0.90002 232.61C0.810019 232.06 0.73002 231.51 0.66002 230.95C0.57002 230.29 0.49002 229.62 0.42002 228.96C0.39002 228.73 0.37002 228.51 0.35002 228.29C0.29002 227.72 0.25002 227.15 0.20002 226.59C0.20002 226.54 0.20002 226.49 0.19002 226.45C0.14002 225.77 0.10002 225.1 0.0800195 224.43C0.0800195 224.36 0.0800195 224.3 0.0800195 224.24C0.0500195 223.53 0.0300195 222.82 0.0200195 222.11C0.0200195 221.84 0.0200195 221.58 0.0200195 221.32C0.0200195 220.9 0.0200195 220.49 0.0200195 220.07C0.0300195 219.03 0.0600195 217.98 0.13002 216.94C0.17002 216.26 0.22002 215.58 0.28002 214.91C0.40002 213.57 0.56002 212.23 0.76002 210.9C0.86002 210.22 0.97002 209.54 1.10002 208.87C1.34002 207.52 1.63002 206.17 1.97002 204.82C2.87002 201.27 4.02002 197.85 5.42002 194.57C6.48002 192.04 7.68002 189.61 9.01002 187.23C9.11002 187.03 9.23002 186.82 9.35002 186.62C14.74 177.13 22.07 168.71 30.33 160.91C31.21 160.07 32.1 159.25 33.01 158.44C33.96 157.57 34.92 156.72 35.89 155.86C35.95 155.81 36.01 155.75 36.07 155.7C37.62 154.34 39.19 153 40.78 151.67C43.23 149.62 45.72 147.61 48.23 145.61C48.31 145.54 48.4 145.48 48.48 145.41C50.63 143.71 52.8 142.02 54.96 140.34C58.36 137.71 61.77 135.09 65.11 132.48C66 131.79 66.88 131.1 67.75 130.41C68.72 129.65 69.67 128.89 70.62 128.13C79.58 120.95 87.3 113.31 94.48 105.49C95.87 103.97 97.25 102.44 98.62 100.9C99.27 100.16 99.92 99.43 100.56 98.69C109.69 88.29 118.18 77.77 127.63 67.84C129.88 65.47 132.18 63.14 134.55 60.85C136.55 58.94 138.58 57.06 140.69 55.22C143.1 53.1 145.58 51.03 148.18 49.03C151.73 46.27 155.47 43.62 159.47 41.09C160.45 40.46 161.42 39.85 162.4 39.25C262.11 -22.72 335.5 -2.49001 384.46 39.25C388.15 42.38 391.71 45.65 395.12 49.03C397.2 51.04 399.21 53.12 401.16 55.22C401.38 55.44 401.58 55.67 401.79 55.91C403.16 57.37 404.49 58.84 405.79 60.32C406.18 60.76 406.56 61.2 406.94 61.64C407.51 62.3 408.08 62.96 408.64 63.63C409.33 64.44 410.01 65.26 410.69 66.08C411.12 66.6 411.54 67.12 411.96 67.64C414.69 71 417.29 74.41 419.77 77.84C420.27 78.52 420.76 79.21 421.25 79.9C424.67 84.7 427.85 89.55 430.8 94.37C431.22 95.06 431.64 95.75 432.05 96.43C432.47 97.12 432.88 97.81 433.28 98.5C433.68 99.18 434.08 99.87 434.47 100.55C434.87 101.24 435.26 101.92 435.64 102.6C436.02 103.28 436.4 103.97 436.78 104.65C437.17 105.33 437.54 106.01 437.89 106.68C438.26 107.36 438.62 108.04 438.98 108.71C439.34 109.38 439.69 110.06 440.04 110.73C440.38 111.4 440.73 112.07 441.07 112.73C441.41 113.4 441.74 114.07 442.07 114.73C443.38 117.37 444.62 119.98 445.8 122.55C446.38 123.85 446.96 125.14 447.51 126.41C450 132.13 452.13 137.6 453.87 142.69C453.88 142.71 453.89 142.74 453.89 142.76C454.06 143.25 454.22 143.73 454.38 144.21C454.55 144.71 454.71 145.2 454.87 145.69C454.99 146.07 455.12 146.44 455.23 146.82C455.41 147.38 455.59 147.94 455.76 148.51C455.95 149.12 456.13 149.73 456.3 150.34C456.63 151.46 456.95 152.58 457.25 153.71C457.51 154.66 457.76 155.61 458 156.57C458.05 156.75 458.1 156.92 458.14 157.1C458.18 157.25 458.21 157.4 458.25 157.55C458.39 158.11 458.53 158.67 458.66 159.24C459.02 160.73 459.35 162.23 459.66 163.73C459.83 164.55 460 165.36 460.15 166.18C460.18 166.33 460.21 166.48 460.24 166.64C460.39 167.41 460.53 168.18 460.66 168.95C460.84 169.98 461.01 171.02 461.16 172.05C461.29 172.83 461.4 173.62 461.51 174.41C461.52 174.52 461.54 174.64 461.56 174.76C461.63 175.28 461.7 175.81 461.76 176.34C461.82 176.78 461.87 177.22 461.92 177.65C462.1 179.24 462.26 180.82 462.39 182.41L462.48 183.49C462.52 184.09 462.56 184.7 462.6 185.3C462.64 185.97 462.68 186.64 462.71 187.32C462.74 187.84 462.76 188.35 462.78 188.87C462.81 189.63 462.83 190.4 462.84 191.16C462.86 192.04 462.87 192.93 462.87 193.82H462.86Z" fill="#EA8901"/>
<g opacity="0.7">
<path d="M462.86 193.82C462.86 203.43 461.81 213 459.53 222.3C458.78 225.36 457.88 228.41 456.85 231.41C456.55 232.27 456.25 233.13 455.93 233.98C455.67 234.68 455.4 235.38 455.13 236.07C455.05 236.26 454.98 236.45 454.9 236.64C454.61 237.36 454.32 238.08 454.01 238.79C453.96 238.9 453.91 239.02 453.86 239.14C453.56 239.84 453.25 240.54 452.94 241.23C452.8 241.54 452.66 241.84 452.52 242.14C452.24 242.76 451.95 243.37 451.65 243.98C451.34 244.63 451.02 245.27 450.7 245.91C450.58 246.14 450.47 246.37 450.35 246.59C450.07 247.14 449.78 247.69 449.5 248.24C449.27 248.67 449.04 249.09 448.81 249.51C447.75 251.47 446.64 253.4 445.48 255.31C445.01 256.09 444.53 256.87 444.04 257.64C443.93 257.83 443.81 258.02 443.69 258.21C443.13 259.09 442.56 259.97 441.98 260.85C441.51 261.56 441.04 262.27 440.55 262.98C440.13 263.6 439.71 264.21 439.28 264.83C439.19 264.96 439.1 265.09 439 265.22C438.56 265.86 438.1 266.5 437.65 267.14C437.09 267.93 436.52 268.7 435.95 269.48C435.83 269.64 435.72 269.8 435.6 269.95C434.95 270.84 434.28 271.72 433.62 272.59C433.22 273.11 432.82 273.64 432.41 274.15C431.69 275.1 430.95 276.04 430.2 276.98C429.49 277.88 428.77 278.77 428.04 279.66C427.96 279.76 427.88 279.85 427.8 279.95C427.08 280.84 426.36 281.72 425.62 282.6C425.41 282.87 425.18 283.14 424.96 283.4C424.29 284.21 423.61 285.02 422.93 285.82C420.97 288.14 418.99 290.44 417 292.72C412.95 297.38 408.81 302.01 404.59 306.61C401.08 310.41 397.52 314.19 393.89 317.9C376.47 335.79 357.61 352.48 337.1 365.78C334.55 367.43 331.98 369.04 329.38 370.57C328.43 371.13 327.48 371.69 326.53 372.24C326.37 372.33 326.2 372.43 326.04 372.52C325.06 373.08 324.08 373.63 323.09 374.17C322.08 374.73 321.07 375.28 320.05 375.81L318.67 376.53C316.68 377.57 314.67 378.57 312.64 379.53C311.55 380.05 310.46 380.55 309.36 381.04C308.35 381.5 307.33 381.95 306.31 382.39C305.89 382.57 305.48 382.75 305.06 382.92C304.13 383.32 303.19 383.7 302.25 384.08C300.44 384.81 298.61 385.51 296.77 386.17C296.07 386.43 295.36 386.68 294.65 386.93C294.25 387.07 293.85 387.2 293.45 387.34C292.79 387.56 292.13 387.78 291.47 387.99C290.9 388.18 290.32 388.36 289.75 388.54C289.73 388.55 289.71 388.55 289.69 388.56C288.56 388.91 287.43 389.25 286.3 389.58C284.51 390.1 282.72 390.58 280.92 391.04C279.73 391.34 278.54 391.62 277.34 391.89C276.21 392.15 275.08 392.39 273.94 392.63C273.85 392.65 273.76 392.67 273.67 392.68C272.49 392.92 271.3 393.15 270.11 393.36C269.5 393.47 268.9 393.57 268.29 393.67C267.68 393.77 267.07 393.87 266.45 393.96C265.9 394.05 265.34 394.13 264.79 394.2C264.12 394.3 263.44 394.39 262.77 394.48C255.66 395.39 248.53 395.77 241.4 395.69C240.97 395.69 240.55 395.68 240.12 395.67C233.66 395.55 227.2 395.05 220.77 394.22C220.3 394.16 219.83 394.1 219.36 394.03C218.55 393.92 217.74 393.81 216.93 393.69L215.04 393.39C212.37 392.97 209.72 392.49 207.07 391.95C206.48 391.84 205.9 391.72 205.32 391.59C203.54 391.22 201.75 390.82 199.98 390.4C198.79 390.12 197.61 389.83 196.43 389.53C195.84 389.38 195.25 389.23 194.66 389.07C194.07 388.92 193.48 388.76 192.89 388.6C190.54 387.97 188.2 387.29 185.87 386.58C183.16 385.76 180.47 384.89 177.79 383.97C176.82 383.64 175.84 383.3 174.87 382.96C171.86 381.89 168.85 380.76 165.88 379.59C165.35 379.38 164.81 379.16 164.25 378.93C163.82 378.75 163.39 378.56 162.94 378.36C162.65 378.23 162.36 378.1 162.06 377.96C160.12 377.08 158.01 376.05 155.74 374.89C155.36 374.69 154.97 374.49 154.58 374.29C153.19 373.56 151.74 372.79 150.25 371.97C147.12 370.25 143.77 368.35 140.25 366.28C100.24 342.74 38.99 298.56 24.61 281.81C23.88 280.96 23.17 280.1 22.46 279.23C21.91 278.55 21.36 277.86 20.83 277.16C20.34 276.53 19.86 275.9 19.39 275.25C18.97 274.69 18.56 274.12 18.16 273.54C17.78 273.01 17.4 272.47 17.03 271.93C17.01 271.89 16.98 271.85 16.95 271.81C16.5 271.14 16.05 270.47 15.61 269.79C15.19 269.14 14.77 268.49 14.37 267.83C14.17 267.52 13.98 267.2 13.79 266.88C13.34 266.14 12.9 265.4 12.47 264.66C12.47 264.66 12.4667 264.653 12.46 264.64C12 263.82 11.54 263 11.09 262.17C10.31 260.72 9.56 259.26 8.86 257.78C8.68 257.4 8.5 257.01 8.32 256.63C6.9 253.59 5.65 250.49 4.58 247.34C4.19 246.24 3.84 245.13 3.5 244.02C3.07 242.59 2.68 241.15 2.32 239.71C2.25 239.42 2.18 239.14 2.12 238.85C1.94 238.1 1.77 237.34 1.62 236.58C1.39 235.52 1.19 234.46 1.02 233.39C0.979997 233.13 0.929997 232.87 0.899997 232.61C0.809997 232.06 0.729998 231.51 0.659998 230.95C0.569998 230.29 0.489997 229.62 0.419997 228.96C0.389997 228.73 0.369998 228.51 0.349997 228.29C0.289997 227.72 0.249997 227.15 0.199997 226.59C0.199997 226.54 0.199997 226.49 0.189997 226.45C0.139997 225.77 0.0999975 225.1 0.0799975 224.43C0.0799975 224.36 0.0799975 224.3 0.0799975 224.24C0.0499975 223.53 0.0299975 222.82 0.0199975 222.11C-0.0100025 220.38 0.0299975 218.66 0.129997 216.94C0.169997 216.26 0.219997 215.58 0.279997 214.91C0.399998 213.57 0.559997 212.23 0.759997 210.9C0.859998 210.22 0.969998 209.54 1.1 208.87C1.34 207.52 1.63 206.17 1.97 204.82C2.87 201.27 4.02 197.85 5.42 194.57C6.48 192.04 7.68 189.61 9.01 187.23C9.11 187.03 9.23 186.82 9.35 186.62C14.74 177.13 22.07 168.71 30.33 160.91C30.8 160.46 31.27 160.02 31.75 159.58L33.01 158.44C33.96 157.57 34.92 156.72 35.89 155.86C35.95 155.81 36.01 155.75 36.07 155.7C37.62 154.34 39.19 153 40.78 151.67C43.23 149.62 45.72 147.61 48.23 145.61C48.31 145.54 48.4 145.48 48.48 145.41C50.63 143.71 52.8 142.02 54.96 140.34C56.05 139.5 57.13 138.66 58.22 137.82C60.53 136.04 62.84 134.26 65.11 132.48C66 131.79 66.88 131.1 67.75 130.41C68.72 129.65 69.67 128.89 70.62 128.13C79.58 120.95 87.3 113.31 94.48 105.49C95.87 103.97 97.25 102.44 98.62 100.9C99.27 100.16 99.92 99.43 100.56 98.69C109.69 88.29 118.18 77.77 127.63 67.84C129.88 65.47 132.18 63.14 134.55 60.85C136.55 58.94 138.58 57.06 140.69 55.22C143.1 53.1 145.58 51.03 148.18 49.03C151.73 46.27 155.47 43.62 159.47 41.09C160.45 40.46 161.42 39.85 162.4 39.25C262.11 -22.72 335.5 -2.49001 384.46 39.25C388.15 42.38 391.71 45.65 395.12 49.03C397.2 51.04 399.21 53.12 401.16 55.22C401.38 55.44 401.58 55.67 401.79 55.91C403.16 57.37 404.49 58.84 405.79 60.32C406.18 60.76 406.56 61.2 406.94 61.64C407.51 62.3 408.08 62.96 408.64 63.63C409.33 64.44 410.01 65.26 410.69 66.08C411.12 66.6 411.54 67.12 411.96 67.64C414.69 71 417.29 74.41 419.77 77.84C420.27 78.52 420.76 79.21 421.25 79.9C424.67 84.7 427.85 89.55 430.8 94.37C431.22 95.06 431.64 95.75 432.05 96.43C432.47 97.12 432.88 97.81 433.28 98.5C433.68 99.18 434.08 99.87 434.47 100.55C434.87 101.24 435.26 101.92 435.64 102.6C436.02 103.28 436.4 103.97 436.78 104.65C437.17 105.33 437.54 106.01 437.89 106.68C438.26 107.36 438.62 108.04 438.98 108.71C439.34 109.38 439.69 110.06 440.04 110.73C440.38 111.4 440.73 112.07 441.07 112.73C441.41 113.4 441.74 114.07 442.07 114.73C443.39 117.37 444.63 119.98 445.8 122.55C446.38 123.85 446.96 125.14 447.51 126.41C450 132.13 452.13 137.6 453.87 142.69C453.88 142.71 453.89 142.74 453.89 142.76C454.06 143.25 454.22 143.73 454.38 144.21C454.55 144.71 454.71 145.2 454.87 145.69C454.99 146.07 455.12 146.44 455.23 146.82C455.41 147.38 455.59 147.94 455.76 148.51C455.95 149.12 456.13 149.73 456.3 150.34C456.63 151.46 456.95 152.58 457.25 153.71C457.51 154.66 457.76 155.61 458 156.57C458.05 156.75 458.1 156.92 458.14 157.1C458.18 157.25 458.21 157.4 458.25 157.55C458.39 158.11 458.53 158.67 458.66 159.24C459.02 160.73 459.35 162.23 459.66 163.73C459.83 164.55 460 165.36 460.15 166.18C460.18 166.33 460.21 166.48 460.24 166.64C460.39 167.41 460.53 168.18 460.66 168.95C460.84 169.98 461.01 171.02 461.16 172.05C461.29 172.83 461.4 173.62 461.51 174.41C461.52 174.52 461.54 174.64 461.56 174.76C461.63 175.28 461.7 175.81 461.76 176.34C461.82 176.78 461.87 177.22 461.92 177.65C462.1 179.24 462.26 180.82 462.39 182.41L462.48 183.49C462.52 184.09 462.56 184.7 462.6 185.3C462.64 185.97 462.68 186.64 462.71 187.32C462.74 187.84 462.76 188.35 462.78 188.87C462.81 189.63 462.83 190.4 462.84 191.16C462.86 192.04 462.87 192.93 462.87 193.82H462.86Z" fill="white"/>
</g>
<path opacity="0.2" d="M13.2799 210.25C13.0799 210.12 13.1299 210.03 13.2799 210.25V210.25Z" fill="#263238"/>
<path opacity="0.2" d="M106.81 201.43C105.79 208.23 100.77 213.76 94.2401 215.9L91.7601 216.71C82.8401 229.34 67.2001 234.73 53.8701 226.9L49.9701 224.61L39.0501 211.63C39.0501 211.63 38.9601 211.65 38.9201 211.66C35.4601 212.38 31.5501 211.85 28.9901 209.41C28.5801 211.55 25.7901 212.81 23.9201 211.71C22.0501 210.61 21.8101 207.55 23.4801 206.16C21.2801 208.1 17.8801 207.21 15.7601 205.09C15.6701 199.3 16.2801 193.51 17.7101 187.8C18.6101 184.25 19.7601 180.83 21.1601 177.55C22.2201 175.02 23.4201 172.59 24.7501 170.21C24.8501 170.01 24.9701 169.8 25.0901 169.6C27.0601 166.12 29.2901 162.79 31.7401 159.58L33.0001 158.44C33.9501 157.57 34.9101 156.72 35.8801 155.86C35.9401 155.81 36.0001 155.75 36.0601 155.7C37.6101 154.34 39.1801 153 40.7701 151.67C43.2201 149.62 45.7101 147.61 48.2201 145.61C48.3001 145.54 48.3901 145.48 48.4701 145.41C50.6201 143.71 52.7901 142.02 54.9501 140.34C56.0401 139.5 57.1201 138.66 58.2101 137.82C58.8701 137.9 59.5101 138.05 60.1301 138.27C62.8001 139.2 63.2601 141.65 65.1101 143.33C67.5701 145.58 69.9301 141.8 73.7201 141.92C85.3701 142.28 80.8501 154.23 86.5401 152.73C111.11 146.25 106.98 177.68 96.3001 184.58C102.6 189.8 108.03 193.25 106.81 201.43Z" fill="black"/>
<path d="M53.98 231.31C76.8667 231.31 95.42 212.985 95.42 190.38C95.42 167.775 76.8667 149.45 53.98 149.45C31.0934 149.45 12.54 167.775 12.54 190.38C12.54 212.985 31.0934 231.31 53.98 231.31Z" fill="white" stroke="#263238" stroke-miterlimit="10"/>
<path d="M53.9802 226.05C74.8455 226.05 91.7602 209.341 91.7602 188.73C91.7602 168.119 74.8455 151.41 53.9802 151.41C33.1149 151.41 16.2002 168.119 16.2002 188.73C16.2002 209.341 33.1149 226.05 53.9802 226.05Z" fill="#263238" stroke="white" stroke-miterlimit="10"/>
<path d="M13.3799 203.44C10.9999 204.92 10.3199 209.89 12.1999 212.05C14.0799 214.19 17.6599 212.54 18.3899 209.18C18.7399 210.12 19.8399 210.27 20.4099 209.46C20.8099 208.88 20.8299 207.98 20.5499 207.36C20.3699 207.21 20.4399 207.1 20.5499 207.36C21.7699 208.33 23.8699 207.27 24.1599 205.21C23.2699 210.71 28.2699 215.51 31.9499 212.71C30.8599 215.05 32.2899 218.12 34.1899 218.71C36.0899 219.3 38.1299 218.18 39.9499 216.93C41.7699 215.68 43.6299 214.26 45.6199 214.17C47.3599 214.09 48.9599 215.07 50.6099 215.65C55.8699 217.48 62.0299 215.05 66.0499 209.54C68.7099 214.09 75.2599 212.42 77.0199 206.75C77.3899 209.4 79.1999 211.42 81.2299 211.45C83.2499 211.48 85.2999 209.51 85.9899 206.87V206.9C86.0299 209.41 88.2699 210.64 89.8699 209.02C91.9099 206.96 93.1799 203.18 92.1799 200.15C94.9099 200.04 97.5399 196.88 97.9599 193.22C98.3799 189.56 96.5299 185.89 93.8999 185.17C98.4099 183.3 101.95 177.15 102.12 170.88C102.28 164.62 99.0599 158.79 94.6299 157.33C92.9399 156.77 90.9699 156.88 89.5399 158.39C89.0199 154.82 87.3899 151.63 85.0099 150.03C81.2099 147.46 75.9199 149.22 73.0899 154C74.4699 151.53 74.5599 147.96 73.3099 145.62C72.0499 143.29 69.5599 142.35 67.4399 143.46C66.9799 139.63 64.0299 136.91 61.1399 137.65C58.2599 138.39 55.9199 142.49 56.1699 146.36C55.8999 143.24 52.2199 142.47 50.8899 145.09C50.8299 145.19 50.9999 145.33 50.8899 145.09C49.0499 141.23 45.3099 139.25 41.8399 140.38C38.1499 141.59 35.0499 146.23 34.5799 151.28C32.0299 148.96 28.3199 149.06 25.5899 151.53C22.8599 153.99 21.2799 158.67 21.7599 162.86C18.8899 160.03 14.0599 161.57 12.0899 165.95C10.1199 170.33 11.4799 176.54 14.7999 178.37C12.5099 178.72 10.4899 181.76 10.4899 184.84C10.4899 187.93 12.5199 190.56 14.8199 190.48C12.4999 190.68 10.3199 193.42 9.97991 196.53C9.63991 199.65 11.1899 202.77 13.4099 203.45L13.3799 203.44Z" fill="#EA8901"/>
<g opacity="0.2">
<path d="M51.4698 189.1C50.3098 188.13 48.8298 187.66 47.4198 188.1C46.0098 188.54 44.7098 190.01 44.3898 191.82C44.0698 193.63 44.8998 195.63 46.2898 195.97C47.9798 196.39 49.7098 194.5 51.4298 194.71C52.0398 194.78 52.6098 195.12 53.1998 195.29C55.6698 195.98 58.1598 193.77 60.2598 191.68C60.9998 190.95 61.7498 190.19 62.2498 189.19C62.7498 188.19 62.9598 186.87 62.5198 185.9C61.9098 184.55 60.4098 184.44 59.1598 184.7C56.6398 185.22 54.1998 186.66 52.1898 188.8C52.2598 188.3 52.3398 187.79 52.4098 187.28L51.4598 189.1H51.4698Z" fill="white"/>
<path d="M87.5898 184.17C86.9298 183.61 86.2398 183.04 85.4498 182.85C84.6498 182.66 83.7098 182.93 83.1898 183.79C82.4798 184.96 82.8798 186.71 83.7498 187.55C84.6098 188.39 85.7798 188.57 86.8898 188.72C88.0298 188.88 89.4698 188.84 90.0598 187.52C90.4898 186.56 90.1798 185.34 89.5798 184.64C88.9798 183.94 88.1498 183.64 87.3598 183.36L87.5998 184.17H87.5898Z" fill="white"/>
<path d="M31.0497 163.74C28.7297 165.1 26.9097 167.92 26.3097 171.06C26.1297 172.01 26.1297 173.18 26.7697 173.64C27.2197 173.96 27.7997 173.78 28.3297 173.59C30.5397 172.79 32.7597 171.99 34.9697 171.19C33.9097 171.77 32.8197 172.37 31.9597 173.39C31.0997 174.4 30.5097 175.93 30.7597 177.31C31.0497 178.93 32.4397 179.85 33.7697 179.75C35.0997 179.64 36.3497 178.73 37.4397 177.68C38.6097 176.56 39.7597 175.03 39.8097 173.23C39.8697 171.42 38.1097 169.86 37.0097 171.08C39.5397 170.05 41.9697 168.51 44.1697 166.53C44.9697 165.81 45.7497 165.01 46.2697 163.96C46.7797 162.9 46.9797 161.54 46.5397 160.51C44.3797 155.42 41.3897 163.26 39.9797 164.03C37.3197 165.49 34.4197 161.77 31.0497 163.75V163.74Z" fill="white"/>
<path d="M20.3699 186.68C20.1199 187.72 20.2599 188.94 20.8999 189.56C21.5399 190.18 22.6999 189.89 23.0199 188.88C21.5399 189.56 19.9499 190.33 18.9999 191.97C18.0499 193.61 18.2299 196.36 19.6899 196.88C20.5999 197.21 21.5899 196.57 22.4399 195.93C24.8599 194.12 27.1799 192.06 29.3699 189.78C28.6799 191.75 30.2199 193.84 31.8599 193.92C33.4999 194 35.0499 192.77 36.4799 191.6C38.2299 190.16 40.2499 187.99 39.8399 185.51C39.4799 183.35 37.3099 182.51 35.6099 183.26C33.9099 184 32.6099 185.82 31.3999 187.55C32.3599 185.77 31.0899 183.3 29.4699 183.12C27.8999 182.94 26.2999 184.26 25.2999 185.8C27.1599 184.4 27.6299 181.03 25.1799 180.79C23.5799 180.63 20.7899 184.95 20.3799 186.68H20.3699Z" fill="white"/>
<path d="M70.9002 176.08C69.5302 175.5 67.7702 176.76 67.3602 178.61C66.9502 180.46 67.9902 182.48 69.4502 182.68C68.3702 182.86 67.3302 183.61 66.6202 184.71C66.2202 185.32 65.9202 186.09 65.9902 186.85C66.1002 187.98 67.0302 188.66 67.9302 188.65C68.8302 188.64 69.6902 188.1 70.5202 187.57C69.6302 187.73 68.6902 187.92 67.9702 188.66C67.2502 189.4 66.9202 190.89 67.5402 191.65C68.0602 192.29 68.9302 192.12 69.6502 191.82C71.2702 191.15 72.7902 189.98 74.0302 188.45C74.9202 189.69 76.2602 190.54 77.6202 190.17C78.9702 189.81 80.1502 187.9 79.7602 186.27C79.4802 185.11 78.5202 184.42 77.5602 184.33C76.5902 184.24 75.6202 184.64 74.6802 185.08C75.6402 184.16 76.6702 183.14 77.0402 181.7C77.4102 180.26 76.7002 178.4 75.5302 178.59C74.2202 178.8 73.5102 181.11 72.4702 181.99C71.2302 180.55 73.6702 177.24 70.9002 176.08Z" fill="white"/>
<path d="M47.5002 170.6C45.9902 171.97 45.4302 174.53 45.4902 176.81C45.5602 179.32 46.4102 181.96 48.2002 182.86C50.5602 184.04 53.5902 181.33 54.0902 178.03C54.5902 174.73 52.9602 171.5 50.6802 170.11C50.6802 170.11 49.0002 169.22 47.5002 170.59V170.6Z" fill="white"/>
<path d="M64.2198 166.85C64.4198 167.06 64.6198 167.28 64.8198 167.49C63.8398 165.92 61.6998 165.83 60.4798 167.32C59.2498 168.8 59.1998 171.54 60.3598 172.89C61.5298 174.24 63.6698 173.91 64.7198 172.22C66.4198 173.13 68.6998 172.6 69.9498 170.66C71.1998 168.72 70.9798 165.49 69.3498 164.39C67.7198 163.3 65.1698 165.24 65.3098 167.64C65.0798 167.32 64.8398 166.99 64.6098 166.67L64.2198 166.85Z" fill="white"/>
<path d="M82.55 169.51C81.34 171.06 80.09 172.72 79.62 174.78C79.15 176.84 79.82 179.39 81.41 179.82C82.99 180.24 84.54 178.47 85.48 176.67C86.33 175.04 86.99 173.04 86.55 171.27C86.11 169.5 84.1 168.56 83.06 170.01L82.55 169.51Z" fill="white"/>
<path d="M56.2598 158.83C55.6898 157.16 53.7998 156.68 52.5298 157.74C51.2598 158.81 50.7598 161.06 51.2798 162.77C51.7898 164.48 53.1698 165.57 54.6298 165.68C56.4298 165.82 58.6098 163.83 58.2398 161.59C58.9998 162.85 60.3898 163.29 61.6698 163.05C62.9598 162.81 64.1598 161.99 65.2998 161.11C66.8398 159.9 68.4898 158.08 68.3698 155.87C68.2698 154.11 66.9598 152.82 65.5698 152.74C64.1798 152.66 62.7998 153.57 61.7198 154.79C60.8698 155.75 60.1598 156.91 59.2398 157.76C58.3198 158.61 57.0898 159.11 56.1398 158.51L56.2698 158.83H56.2598Z" fill="white"/>
</g>
<path d="M357.49 220.76H126.82V317.91H357.49V220.76Z" fill="#EA8901" stroke="#263238" stroke-linecap="round" stroke-linejoin="round"/>
<path d="M153.34 226.63H131.64V238.64H153.34V226.63Z" fill="white" stroke="#263238" stroke-miterlimit="10"/>
<path d="M352.15 285.2H317.97V297.21H352.15V285.2Z" fill="white" stroke="#263238" stroke-miterlimit="10"/>
<path d="M352.15 241.64H331.05V253.65H352.15V241.64Z" fill="white" stroke="#263238" stroke-miterlimit="10"/>
<path d="M153.34 270.38H131.64V282.39H153.34V270.38Z" fill="white" stroke="#263238" stroke-miterlimit="10"/>
<path d="M149.21 255.92H131.64V267.93H149.21V255.92Z" fill="white" stroke="#263238" stroke-miterlimit="10"/>
<path d="M143.65 241.27H131.64V253.28H143.65V241.27Z" fill="white" stroke="#263238" stroke-miterlimit="10"/>
<path d="M158.99 241.27H146.98V253.28H158.99V241.27Z" fill="white" stroke="#263238" stroke-miterlimit="10"/>
<path d="M174.32 241.27H162.31V253.28H174.32V241.27Z" fill="white" stroke="#263238" stroke-miterlimit="10"/>
<path d="M189.65 241.27H177.64V253.28H189.65V241.27Z" fill="white" stroke="#263238" stroke-miterlimit="10"/>
<path d="M204.99 241.27H192.98V253.28H204.99V241.27Z" fill="white" stroke="#263238" stroke-miterlimit="10"/>
<path d="M220.32 241.27H208.31V253.28H220.32V241.27Z" fill="white" stroke="#263238" stroke-miterlimit="10"/>
<path d="M235.65 241.27H223.64V253.28H235.65V241.27Z" fill="white" stroke="#263238" stroke-miterlimit="10"/>
<path d="M250.99 241.27H238.98V253.28H250.99V241.27Z" fill="white" stroke="#263238" stroke-miterlimit="10"/>
<path d="M266.32 241.27H254.31V253.28H266.32V241.27Z" fill="white" stroke="#263238" stroke-miterlimit="10"/>
<path d="M281.65 241.27H269.64V253.28H281.65V241.27Z" fill="white" stroke="#263238" stroke-miterlimit="10"/>
<path d="M296.99 241.27H284.98V253.28H296.99V241.27Z" fill="white" stroke="#263238" stroke-miterlimit="10"/>
<path d="M312.32 241.27H300.31V253.28H312.32V241.27Z" fill="white" stroke="#263238" stroke-miterlimit="10"/>
<path d="M327.66 241.27H315.65V253.28H327.66V241.27Z" fill="white" stroke="#263238" stroke-miterlimit="10"/>
<path d="M143.65 300.01H131.64V312.02H143.65V300.01Z" fill="white" stroke="#263238" stroke-miterlimit="10"/>
<path d="M158.99 300.01H146.98V312.02H158.99V300.01Z" fill="white" stroke="#263238" stroke-miterlimit="10"/>
<path d="M174.32 300.01H162.31V312.02H174.32V300.01Z" fill="white" stroke="#263238" stroke-miterlimit="10"/>
<path d="M192.3 300.01H177.64V312.02H192.3V300.01Z" fill="white" stroke="#263238" stroke-miterlimit="10"/>
<path d="M268.97 300.01H195.62V312.02H268.97V300.01Z" fill="white" stroke="#263238" stroke-miterlimit="10"/>
<path d="M305.64 300.01H293.63V312.02H305.64V300.01Z" fill="white" stroke="#263238" stroke-miterlimit="10"/>
<path d="M320.97 300.01H308.96V312.02H320.97V300.01Z" fill="white" stroke="#263238" stroke-miterlimit="10"/>
<path d="M336.33 300.01H324.32V312.02H336.33V300.01Z" fill="white" stroke="#263238" stroke-miterlimit="10"/>
<path d="M290.62 300.01H271.97V312.02H290.62V300.01Z" fill="white" stroke="#263238" stroke-miterlimit="10"/>
<path d="M352.15 300.01H340.14V312.02H352.15V300.01Z" fill="white" stroke="#263238" stroke-miterlimit="10"/>
<path d="M164.63 255.92H152.62V267.93H164.63V255.92Z" fill="white" stroke="#263238" stroke-miterlimit="10"/>
<path d="M179.96 255.92H167.95V267.93H179.96V255.92Z" fill="white" stroke="#263238" stroke-miterlimit="10"/>
<path d="M195.3 255.92H183.29V267.93H195.3V255.92Z" fill="white" stroke="#263238" stroke-miterlimit="10"/>
<path d="M210.63 255.92H198.62V267.93H210.63V255.92Z" fill="white" stroke="#263238" stroke-miterlimit="10"/>
<path d="M225.96 255.92H213.95V267.93H225.96V255.92Z" fill="white" stroke="#263238" stroke-miterlimit="10"/>
<path d="M241.3 255.92H229.29V267.93H241.3V255.92Z" fill="white" stroke="#263238" stroke-miterlimit="10"/>
<path d="M256.63 255.92H244.62V267.93H256.63V255.92Z" fill="white" stroke="#263238" stroke-miterlimit="10"/>
<path d="M271.97 255.92H259.96V267.93H271.97V255.92Z" fill="white" stroke="#263238" stroke-miterlimit="10"/>
<path d="M287.3 255.92H275.29V267.93H287.3V255.92Z" fill="white" stroke="#263238" stroke-miterlimit="10"/>
<path d="M302.63 255.92H290.62V267.93H302.63V255.92Z" fill="white" stroke="#263238" stroke-miterlimit="10"/>
<path d="M317.97 255.92H305.96V267.93H317.97V255.92Z" fill="white" stroke="#263238" stroke-miterlimit="10"/>
<path d="M333.3 255.92H321.29V267.93H333.3V255.92Z" fill="white" stroke="#263238" stroke-miterlimit="10"/>
<path d="M352.15 255.92V282.57H340.14V267.93H336.62V255.92H352.15Z" fill="white" stroke="#263238" stroke-miterlimit="10"/>
<path d="M168.15 270.56H156.14V282.57H168.15V270.56Z" fill="white" stroke="#263238" stroke-miterlimit="10"/>
<path d="M183.48 270.56H171.47V282.57H183.48V270.56Z" fill="white" stroke="#263238" stroke-miterlimit="10"/>
<path d="M198.81 270.56H186.8V282.57H198.81V270.56Z" fill="white" stroke="#263238" stroke-miterlimit="10"/>
<path d="M214.15 270.56H202.14V282.57H214.15V270.56Z" fill="white" stroke="#263238" stroke-miterlimit="10"/>
<path d="M229.48 270.56H217.47V282.57H229.48V270.56Z" fill="white" stroke="#263238" stroke-miterlimit="10"/>
<path d="M244.82 270.56H232.81V282.57H244.82V270.56Z" fill="white" stroke="#263238" stroke-miterlimit="10"/>
<path d="M260.15 270.56H248.14V282.57H260.15V270.56Z" fill="white" stroke="#263238" stroke-miterlimit="10"/>
<path d="M275.48 270.56H263.47V282.57H275.48V270.56Z" fill="white" stroke="#263238" stroke-miterlimit="10"/>
<path d="M290.82 270.56H278.81V282.57H290.82V270.56Z" fill="white" stroke="#263238" stroke-miterlimit="10"/>
<path d="M306.15 270.56H294.14V282.57H306.15V270.56Z" fill="white" stroke="#263238" stroke-miterlimit="10"/>
<path d="M321.48 270.56H309.47V282.57H321.48V270.56Z" fill="white" stroke="#263238" stroke-miterlimit="10"/>
<path d="M336.82 270.56H324.81V282.57H336.82V270.56Z" fill="white" stroke="#263238" stroke-miterlimit="10"/>
<path d="M161.63 285.2H149.62V297.21H161.63V285.2Z" fill="white" stroke="#263238" stroke-miterlimit="10"/>
<path d="M176.96 285.2H164.95V297.21H176.96V285.2Z" fill="white" stroke="#263238" stroke-miterlimit="10"/>
<path d="M192.3 285.2H180.29V297.21H192.3V285.2Z" fill="white" stroke="#263238" stroke-miterlimit="10"/>
<path d="M207.63 285.2H195.62V297.21H207.63V285.2Z" fill="white" stroke="#263238" stroke-miterlimit="10"/>
<path d="M222.96 285.2H210.95V297.21H222.96V285.2Z" fill="white" stroke="#263238" stroke-miterlimit="10"/>
<path d="M238.3 285.2H226.29V297.21H238.3V285.2Z" fill="white" stroke="#263238" stroke-miterlimit="10"/>
<path d="M253.63 285.2H241.62V297.21H253.63V285.2Z" fill="white" stroke="#263238" stroke-miterlimit="10"/>
<path d="M268.97 285.2H256.96V297.21H268.97V285.2Z" fill="white" stroke="#263238" stroke-miterlimit="10"/>
<path d="M284.3 285.2H272.29V297.21H284.3V285.2Z" fill="white" stroke="#263238" stroke-miterlimit="10"/>
<path d="M299.63 285.2H287.62V297.21H299.63V285.2Z" fill="white" stroke="#263238" stroke-miterlimit="10"/>
<path d="M314.97 285.2H302.96V297.21H314.97V285.2Z" fill="white" stroke="#263238" stroke-miterlimit="10"/>
<path d="M168.15 227.36H156.14V239.37H168.15V227.36Z" fill="white" stroke="#263238" stroke-miterlimit="10"/>
<path d="M183.48 227.36H171.47V239.37H183.48V227.36Z" fill="white" stroke="#263238" stroke-miterlimit="10"/>
<path d="M198.81 227.36H186.8V239.37H198.81V227.36Z" fill="white" stroke="#263238" stroke-miterlimit="10"/>
<path d="M214.15 227.36H202.14V239.37H214.15V227.36Z" fill="white" stroke="#263238" stroke-miterlimit="10"/>
<path d="M229.48 227.36H217.47V239.37H229.48V227.36Z" fill="white" stroke="#263238" stroke-miterlimit="10"/>
<path d="M244.82 227.36H232.81V239.37H244.82V227.36Z" fill="white" stroke="#263238" stroke-miterlimit="10"/>
<path d="M260.15 227.36H248.14V239.37H260.15V227.36Z" fill="white" stroke="#263238" stroke-miterlimit="10"/>
<path d="M275.48 227.36H263.47V239.37H275.48V227.36Z" fill="white" stroke="#263238" stroke-miterlimit="10"/>
<path d="M290.82 227.36H278.81V239.37H290.82V227.36Z" fill="white" stroke="#263238" stroke-miterlimit="10"/>
<path d="M306.15 227.36H294.14V239.37H306.15V227.36Z" fill="white" stroke="#263238" stroke-miterlimit="10"/>
<path d="M321.48 227.36H309.47V239.37H321.48V227.36Z" fill="white" stroke="#263238" stroke-miterlimit="10"/>
<path d="M336.82 227.36H324.81V239.37H336.82V227.36Z" fill="white" stroke="#263238" stroke-miterlimit="10"/>
<path d="M352.15 227.36H340.14V239.37H352.15V227.36Z" fill="white" stroke="#263238" stroke-miterlimit="10"/>
<path d="M146.19 285.2H131.64V297.21H146.19V285.2Z" fill="white" stroke="#263238" stroke-miterlimit="10"/>
<path d="M126.82 221.38L131.64 219.77H354.36L357.53 221.36L126.82 221.38Z" fill="#263238"/>
<path opacity="0.2" d="M291.47 387.99L286.78 359.74C285.75 355.53 283.54 351.7 280.43 348.68C271.1 339.68 258.77 330.44 258.24 318.64C257.43 300.61 254.62 301.15 254.92 296.7C254.93 296.54 256.32 294.55 258.13 290.1C258.71 288.66 259.1 286.52 259.49 284.76C259.89 282.91 261.65 281.65 263.53 281.91C264.79 282.08 266.03 282.65 266.92 283.5C268.63 285.16 269.39 287.61 269.46 290C269.53 292.38 269 294.74 268.46 297.06C270.14 300.82 270.93 305.39 271.47 309.47C272.54 306.17 273.35 302.84 274.42 299.55C274.64 299.43 274.56 299.17 274.77 299.05C273.26 295.81 274.54 295.99 271.55 288.86C266.52 276.86 260.91 265.29 256.9 250.21C256.58 249.04 256.6 247.12 256.99 245.97C258.44 241.66 262.88 242.65 264.82 245.16C265.34 245.82 265.72 246.56 266.02 247.34C268.07 252.71 272.44 260.99 275.59 265.79L286.48 282.39C286.48 282.39 290.27 279.28 290.85 277.89H290.86C291.43 276.48 291.71 265.21 291.71 265.21C291.71 265.21 290.85 267.32 288.94 267.2C287.56 267.1 284.76 267.9 282.77 265.66C281.14 263.83 281.14 261.08 282.59 259.12L287.52 252.46C287.52 252.46 290.83 249.56 295.26 251.53C299.68 253.51 303.97 257.63 303.97 257.63C303.97 257.63 308.07 257.42 311.55 259.09C315.04 260.77 318.7 265.59 318.7 265.59C318.7 265.59 322.77 265.84 324.6 267.17C325.06 267.5 331.27 277.17 329.03 284.7C327.7 289.19 326.88 295.71 326.28 297.46L323.23 341.55L329.38 370.57L316.23 377.9C311.39 380.6 306.33 382.86 301.1 384.67L291.47 387.99Z" fill="black"/>
<path d="M328.81 336.47L328.93 292.27C329.41 290.48 329.8 283.92 330.82 279.35C332.55 271.69 325.72 262.45 325.23 262.15C323.31 260.95 319.24 260.97 319.24 260.97C319.24 260.97 315.27 256.4 311.67 254.96C308.09 253.53 304.01 254.01 304.01 254.01C304.01 254.01 299.46 250.18 294.91 248.5C290.36 246.83 287.25 249.94 287.25 249.94L282.78 256.91C281.46 258.96 281.65 261.71 283.39 263.43C285.53 265.54 288.27 264.55 289.65 264.55C291.57 264.55 292.28 262.39 292.28 262.39C292.28 262.39 292.75 273.65 292.28 275.08H292.27C291.78 276.52 288.2 279.87 288.2 279.87L276.24 264.03C272.77 259.45 267.86 251.48 265.46 246.26C265.11 245.5 264.68 244.78 264.11 244.16C262.01 241.78 257.52 241.09 256.35 245.49C256.04 246.67 256.15 248.58 256.54 249.73C261.55 264.51 267.91 275.68 273.72 287.32C277.18 294.23 275.89 294.15 277.61 297.27C277.41 297.41 277.5 297.67 277.29 297.79C276.44 301.15 275.86 304.52 275.01 307.88C274.2 303.85 273.11 299.34 271.18 295.7C271.57 293.35 271.94 290.96 271.7 288.58C271.48 286.2 270.56 283.81 268.74 282.27C267.8 281.48 266.52 281 265.25 280.91C263.36 280.77 261.69 282.15 261.41 284.02C261.14 285.8 260.9 287.96 260.4 289.43C258.89 293.99 257.64 296.06 257.64 296.22C257.64 300.68 260.4 299.95 262.41 317.9C263.97 331.87 281.97 341.11 291.77 351.2L302.21 384.05C314.33 379.19 325.93 372.97 337.06 365.75L328.77 336.44L328.81 336.47Z" fill="white"/>
<mask id="mask0_17_1198" style="mask-type:luminance" maskUnits="userSpaceOnUse" x="256" y="242" width="82" height="143">
<path d="M328.81 336.47L328.93 292.27C329.41 290.48 329.8 283.92 330.82 279.35C332.55 271.69 325.72 262.45 325.23 262.15C323.31 260.95 319.24 260.97 319.24 260.97C319.24 260.97 315.27 256.4 311.67 254.96C308.09 253.53 304.01 254.01 304.01 254.01C304.01 254.01 299.46 250.18 294.91 248.5C290.36 246.83 287.25 249.94 287.25 249.94L282.78 256.91C281.46 258.96 281.65 261.71 283.39 263.43C285.53 265.54 288.27 264.55 289.65 264.55C291.57 264.55 292.28 262.39 292.28 262.39C292.28 262.39 292.75 273.65 292.28 275.08H292.27C291.78 276.52 288.2 279.87 288.2 279.87L276.24 264.03C272.77 259.45 267.86 251.48 265.46 246.26C265.11 245.5 264.68 244.78 264.11 244.16C262.01 241.78 257.52 241.09 256.35 245.49C256.04 246.67 256.15 248.58 256.54 249.73C261.55 264.51 267.91 275.68 273.72 287.32C277.18 294.23 275.89 294.15 277.61 297.27C277.41 297.41 277.5 297.67 277.29 297.79C276.44 301.15 275.86 304.52 275.01 307.88C274.2 303.85 273.11 299.34 271.18 295.7C271.57 293.35 271.94 290.96 271.7 288.58C271.48 286.2 270.56 283.81 268.74 282.27C267.8 281.48 266.52 281 265.25 280.91C263.36 280.77 261.69 282.15 261.41 284.02C261.14 285.8 260.9 287.96 260.4 289.43C258.89 293.99 257.64 296.06 257.64 296.22C257.64 300.68 260.4 299.95 262.41 317.9C263.97 331.87 281.97 341.11 291.77 351.2L302.21 384.05C314.33 379.19 325.93 372.97 337.06 365.75L328.77 336.44L328.81 336.47Z" fill="white"/>
</mask>
<g mask="url(#mask0_17_1198)">
<path d="M323.69 276.41C324.22 275.11 324.85 273.77 325.99 272.94C327.13 272.11 328.91 272.01 329.82 273.08C329.07 270.79 328.28 268.51 327.44 266.25C326.8 264.53 326.08 262.74 324.66 261.57C323.24 260.4 320.9 260.16 319.68 261.54C320.55 266.76 320.64 272.1 319.96 277.34C319.59 280.18 319.11 283.44 321.03 285.58C321.56 286.01 322.47 285.24 322.14 284.65C321.98 284.37 321.42 284.35 321.17 284.38C321.78 281.67 322.65 279 323.7 276.42L323.69 276.41Z" fill="#EA8901"/>
<path d="M323.69 276.41C324.22 275.11 324.85 273.77 325.99 272.94C327.13 272.11 328.91 272.01 329.82 273.08C329.07 270.79 328.28 268.51 327.44 266.25C326.8 264.53 326.08 262.74 324.66 261.57C323.24 260.4 320.9 260.16 319.68 261.54C320.55 266.76 320.64 272.1 319.96 277.34C319.59 280.18 319.11 283.44 321.03 285.58C321.56 286.01 322.47 285.24 322.14 284.65C321.98 284.37 321.42 284.35 321.17 284.38C321.78 281.67 322.65 279 323.7 276.42L323.69 276.41Z" fill="#EA8901"/>
<path opacity="0.5" d="M323.69 276.41C324.22 275.11 324.85 273.77 325.99 272.94C327.13 272.11 328.91 272.01 329.82 273.08C329.07 270.79 328.28 268.51 327.44 266.25C326.8 264.53 326.08 262.74 324.66 261.57C323.24 260.4 320.9 260.16 319.68 261.54C320.55 266.76 320.64 272.1 319.96 277.34C319.59 280.18 319.11 283.44 321.03 285.58C321.56 286.01 322.47 285.24 322.14 284.65C321.98 284.37 321.42 284.35 321.17 284.38C321.78 281.67 322.65 279 323.7 276.42L323.69 276.41Z" fill="white"/>
<path d="M307.73 271.66C307.81 273.58 307.79 275.53 308.27 277.4C308.74 279.27 309.78 281.08 311.47 282.02C310.48 278.29 311.01 274.35 311.56 270.53C311.89 268.21 312.22 265.89 312.55 263.57C312.66 262.76 312.79 261.92 313.26 261.26C313.73 260.6 314.63 260.15 315.37 260.49C314.38 261.08 313.1 260.29 312.5 259.31C311.9 258.33 311.67 257.14 310.96 256.24C309.62 254.52 306.76 254.14 304.79 254.6C305.39 260.31 307.51 265.77 307.74 271.67L307.73 271.66Z" fill="#EA8901"/>
<path d="M307.73 271.66C307.81 273.58 307.79 275.53 308.27 277.4C308.74 279.27 309.78 281.08 311.47 282.02C310.48 278.29 311.01 274.35 311.56 270.53C311.89 268.21 312.22 265.89 312.55 263.57C312.66 262.76 312.79 261.92 313.26 261.26C313.73 260.6 314.63 260.15 315.37 260.49C314.38 261.08 313.1 260.29 312.5 259.31C311.9 258.33 311.67 257.14 310.96 256.24C309.62 254.52 306.76 254.14 304.79 254.6C305.39 260.31 307.51 265.77 307.74 271.67L307.73 271.66Z" fill="#EA8901"/>
<g opacity="0.5">
<path d="M307.73 271.66C307.81 273.58 307.79 275.53 308.27 277.4C308.74 279.27 309.78 281.08 311.47 282.02C310.48 278.29 311.01 274.35 311.56 270.53C311.89 268.21 312.22 265.89 312.55 263.57C312.66 262.76 312.79 261.92 313.26 261.26C313.73 260.6 314.63 260.15 315.37 260.49C314.38 261.08 313.1 260.29 312.5 259.31C311.9 258.33 311.67 257.14 310.96 256.24C309.62 254.52 306.76 254.14 304.79 254.6C305.39 260.31 307.51 265.77 307.74 271.67L307.73 271.66Z" fill="white"/>
</g>
<path d="M291.41 256.25C290.76 255.78 290.55 254.92 290.36 254.15C290.17 253.37 289.89 252.52 289.19 252.13C286.12 254.08 287.8 259.79 284.69 261.68C284.09 262.05 283.32 262.25 282.99 262.87C282.69 263.43 282.88 264.17 283.32 264.63C283.76 265.09 284.39 265.32 285.02 265.44C287.49 265.88 290.09 264.62 291.57 262.59C292.79 260.92 293.63 258.21 293.03 256.22C292.56 256.48 291.89 256.58 291.43 256.24L291.41 256.25Z" fill="#EA8901"/>
<path d="M259.48 293.63C259.42 293.84 259.38 294.11 259.56 294.25C259.82 294.47 260.17 294.13 260.37 293.85C261.66 292.02 264.21 291.19 266.33 291.92C267.14 291.9 267.41 290.67 266.88 290.06C266.35 289.45 265.45 289.34 264.64 289.34C263.83 289.34 262.96 289.38 262.28 288.95C261.44 288.42 261.11 287.35 261.32 286.43C260.78 288.84 260.1 291.23 259.48 293.63Z" fill="#EA8901"/>
<g opacity="0.5">
<path d="M291.41 256.25C290.76 255.78 290.55 254.92 290.36 254.15C290.17 253.37 289.89 252.52 289.19 252.13C286.12 254.08 287.8 259.79 284.69 261.68C284.09 262.05 283.32 262.25 282.99 262.87C282.69 263.43 282.88 264.17 283.32 264.63C283.76 265.09 284.39 265.32 285.02 265.44C287.49 265.88 290.09 264.62 291.57 262.59C292.79 260.92 293.63 258.21 293.03 256.22C292.56 256.48 291.89 256.58 291.43 256.24L291.41 256.25Z" fill="white"/>
<path d="M259.48 293.63C259.42 293.84 259.38 294.11 259.56 294.25C259.82 294.47 260.17 294.13 260.37 293.85C261.66 292.02 264.21 291.19 266.33 291.92C267.14 291.9 267.41 290.67 266.88 290.06C266.35 289.45 265.45 289.34 264.64 289.34C263.83 289.34 262.96 289.38 262.28 288.95C261.44 288.42 261.11 287.35 261.32 286.43C260.78 288.84 260.1 291.23 259.48 293.63Z" fill="white"/>
</g>
<path d="M300.19 255.49C298.44 255.26 296.59 255.21 295.07 254.32C293.16 253.2 291.86 250.81 289.65 250.72C287.69 250.63 286.23 252.43 285.11 254.05C284.98 251.61 286.78 249.33 289.05 248.42C291.32 247.51 293.93 247.8 296.2 248.7C298.47 249.6 300.47 251.07 302.41 252.56C303.19 253.16 303.98 253.78 304.51 254.61C306.98 258.49 301.75 255.69 300.21 255.49H300.19Z" fill="#EA8901"/>
<path opacity="0.5" d="M300.19 255.49C298.44 255.26 296.59 255.21 295.07 254.32C293.16 253.2 291.86 250.81 289.65 250.72C287.69 250.63 286.23 252.43 285.11 254.05C284.98 251.61 286.78 249.33 289.05 248.42C291.32 247.51 293.93 247.8 296.2 248.7C298.47 249.6 300.47 251.07 302.41 252.56C303.19 253.16 303.98 253.78 304.51 254.61C306.98 258.49 301.75 255.69 300.21 255.49H300.19Z" fill="white"/>
<path d="M268.92 312.28C269.04 312.06 269.14 311.84 269.25 311.61C269.04 311.77 268.9 311.99 268.92 312.28Z" fill="#EA8901"/>
<path d="M271.89 296.79C271.69 294.32 272.04 291.85 271.94 289.38C271.84 286.91 271.19 284.31 269.39 282.61C266.81 280.18 259.74 281.42 262.11 286.04C262.77 287.32 264.46 287.98 265.78 287.41C267.1 286.84 267.75 285.04 267.03 283.8C269.89 288.13 269.63 294.29 266.42 298.37C270.08 301.54 271.25 307.23 269.24 311.62C269.67 311.29 270.42 311.25 270.88 311.6C271.58 312.13 271.81 313.05 272.16 313.86C272.5 314.67 273.16 315.51 274.04 315.45C275.24 312.51 274.84 309.15 274.06 306.07C273.28 302.99 272.13 299.97 271.88 296.8L271.89 296.79Z" fill="#EA8901"/>
<path d="M297.76 250.42C296.38 249.37 294.75 248.65 293.03 248.43L297.76 250.42Z" fill="#EA8901"/>
<path d="M309.52 281.71C309.14 280.01 308.36 278.43 307.89 276.75C306.8 272.84 307.48 268.66 306.98 264.63C306.33 259.42 303.62 254.5 299.55 251.17L297.76 250.41C299.47 251.72 300.79 253.57 301.36 255.65C302.74 260.42 303.18 265.41 303.79 270.35C304.74 277.96 306.13 285.51 307.95 292.96C309.14 289.31 310.35 285.45 309.51 281.7L309.52 281.71Z" fill="#EA8901"/>
<path d="M290.48 263.92C291.72 262.94 292.38 261.38 292.59 259.81C292.78 258.41 292.64 256.99 292.48 255.59C292.36 256.19 291.58 256.7 290.91 256.54C290.06 256.34 289.5 255.55 289.02 254.82C288.9 255.24 288.78 255.66 288.65 256.08C288.6 255.85 288.55 255.63 288.5 255.4L288.03 256C288.74 258.01 289.42 260.34 288.33 262.16C287.8 263.04 286.93 263.66 286.08 264.24C287.37 265.14 289.25 264.89 290.49 263.91L290.48 263.92Z" fill="#EA8901"/>
<path d="M292.42 255.09C292.44 255.26 292.46 255.42 292.48 255.59C292.51 255.43 292.51 255.26 292.42 255.09Z" fill="#EA8901"/>
<path d="M287.19 275.33C283.68 268.44 280.17 261.55 276.32 254.85C274.07 250.93 271.68 247.06 268.67 243.69C267.34 242.19 263.51 238.73 261.4 241.01C259.99 242.53 261.84 245.3 260.11 246.94C260.51 246.96 262.46 246.75 262.67 247.01C267.06 252.44 269.48 259.42 269.38 266.4C270.79 265.29 272.72 266.83 273.83 268.25C280.6 276.96 286.94 286.01 292.8 295.35C291.66 291.22 291.64 286.84 290.41 282.73C289.64 280.15 288.41 277.73 287.19 275.33Z" fill="#EA8901"/>
<path d="M327.93 292.12C329.61 287.64 330.91 283.04 331.06 278.28C331.19 273.95 330.21 269.46 327.92 265.76C327.34 264.82 324.94 260.99 323.62 261.3C321.27 261.86 324.36 265.94 324.89 266.96C326.92 270.81 329 274.88 328.87 279.23C328.77 282.58 327.36 285.73 326.23 288.89C325.44 291.09 324.8 293.44 324.82 295.75C324.65 296.01 324.49 296.27 324.3 296.52C322.74 298.56 320.55 300.25 318.02 300.66C318.99 297.68 319.95 294.69 320.92 291.71C321.26 290.65 321.39 289.19 320.77 288.45C320.97 288.04 321.09 287.61 321.08 287.15C321.05 286.33 320.58 285.6 320.23 284.85C318.89 281.97 319.35 278.62 319.67 275.46C320.07 271.56 320.22 267.55 319.08 263.8C317.94 260.05 315.29 256.57 311.57 255.33C311.89 255.67 312.21 256.02 312.52 256.36L311.26 255.44C312.04 257.06 312.82 258.69 313.6 260.32C313.31 260.73 313.02 261.14 312.74 261.55C314.03 260.87 315.68 261.85 316.27 263.19C316.86 264.52 316.7 266.05 316.56 267.5C315.8 275.59 316.21 283.78 317.74 291.76C317.59 293.62 317.27 295.51 316.3 297.1C315.25 298.81 313.29 300.1 311.3 299.81C311.74 297.89 311 295.62 309.37 294.48C307.35 297.28 308.54 301.63 308.85 304.82C309.32 309.65 310.09 314.45 311.17 319.18C311.48 315.08 312.34 311.02 313.72 307.14C314.81 311.09 315.9 315.04 316.98 318.99C317.01 317.88 317.06 316.73 317.6 315.76C318.14 314.79 319.33 314.09 320.36 314.48C321.21 314.8 321.67 315.7 322.01 316.54C324.84 323.33 325.55 330.98 324.02 338.17C325.36 338.92 327.14 338.01 327.88 336.67C328.62 335.33 328.62 333.71 328.59 332.17C328.36 318.83 328.12 305.49 327.89 292.15L327.93 292.12Z" fill="#EA8901"/>
<path d="M294.03 296.35C293.39 297.47 296.01 301.93 296.44 302.99C298.64 308.37 300.85 313.75 303.05 319.13C302.32 312.04 300.59 305.06 297.92 298.46C297.47 297.34 295.29 294.12 294.02 296.35H294.03Z" fill="#EA8901"/>
<path d="M297.45 267.83C297.07 268.4 296.54 269.1 295.89 268.9C295.28 268.71 295.18 267.91 295.19 267.28C295.25 263.54 295.31 259.79 295.37 256.05C292.35 258.22 292.74 261.06 292.52 264.29C292.4 266.16 292.94 275.09 291.66 276.18C294.65 273.63 297.18 270.55 299.1 267.12C298.58 266.69 297.82 267.27 297.45 267.83Z" fill="#EA8901"/>
<g opacity="0.5">
<path d="M268.92 312.28C269.04 312.06 269.14 311.84 269.25 311.61C269.04 311.77 268.9 311.99 268.92 312.28Z" fill="white"/>
<path d="M271.89 296.79C271.69 294.32 272.04 291.85 271.94 289.38C271.84 286.91 271.19 284.31 269.39 282.61C266.81 280.18 259.74 281.42 262.11 286.04C262.77 287.32 264.46 287.98 265.78 287.41C267.1 286.84 267.75 285.04 267.03 283.8C269.89 288.13 269.63 294.29 266.42 298.37C270.08 301.54 271.25 307.23 269.24 311.62C269.67 311.29 270.42 311.25 270.88 311.6C271.58 312.13 271.81 313.05 272.16 313.86C272.5 314.67 273.16 315.51 274.04 315.45C275.24 312.51 274.84 309.15 274.06 306.07C273.28 302.99 272.13 299.97 271.88 296.8L271.89 296.79Z" fill="white"/>
<path d="M297.76 250.42C296.38 249.37 294.75 248.65 293.03 248.43L297.76 250.42Z" fill="white"/>
<path d="M309.52 281.71C309.14 280.01 308.36 278.43 307.89 276.75C306.8 272.84 307.48 268.66 306.98 264.63C306.33 259.42 303.62 254.5 299.55 251.17L297.76 250.41C299.47 251.72 300.79 253.57 301.36 255.65C302.74 260.42 303.18 265.41 303.79 270.35C304.74 277.96 306.13 285.51 307.95 292.96C309.14 289.31 310.35 285.45 309.51 281.7L309.52 281.71Z" fill="white"/>
<path d="M290.48 263.92C291.72 262.94 292.38 261.38 292.59 259.81C292.78 258.41 292.64 256.99 292.48 255.59C292.36 256.19 291.58 256.7 290.91 256.54C290.06 256.34 289.5 255.55 289.02 254.82C288.9 255.24 288.78 255.66 288.65 256.08C288.6 255.85 288.55 255.63 288.5 255.4L288.03 256C288.74 258.01 289.42 260.34 288.33 262.16C287.8 263.04 286.93 263.66 286.08 264.24C287.37 265.14 289.25 264.89 290.49 263.91L290.48 263.92Z" fill="white"/>
<path d="M292.42 255.09C292.44 255.26 292.46 255.42 292.48 255.59C292.51 255.43 292.51 255.26 292.42 255.09Z" fill="white"/>
<path d="M287.19 275.33C283.68 268.44 280.17 261.55 276.32 254.85C274.07 250.93 271.68 247.06 268.67 243.69C267.34 242.19 263.51 238.73 261.4 241.01C259.99 242.53 261.84 245.3 260.11 246.94C260.51 246.96 262.46 246.75 262.67 247.01C267.06 252.44 269.48 259.42 269.38 266.4C270.79 265.29 272.72 266.83 273.83 268.25C280.6 276.96 286.94 286.01 292.8 295.35C291.66 291.22 291.64 286.84 290.41 282.73C289.64 280.15 288.41 277.73 287.19 275.33Z" fill="white"/>
<path d="M327.93 292.12C329.61 287.64 330.91 283.04 331.06 278.28C331.19 273.95 330.21 269.46 327.92 265.76C327.34 264.82 324.94 260.99 323.62 261.3C321.27 261.86 324.36 265.94 324.89 266.96C326.92 270.81 329 274.88 328.87 279.23C328.77 282.58 327.36 285.73 326.23 288.89C325.44 291.09 324.8 293.44 324.82 295.75C324.65 296.01 324.49 296.27 324.3 296.52C322.74 298.56 320.55 300.25 318.02 300.66C318.99 297.68 319.95 294.69 320.92 291.71C321.26 290.65 321.39 289.19 320.77 288.45C320.97 288.04 321.09 287.61 321.08 287.15C321.05 286.33 320.58 285.6 320.23 284.85C318.89 281.97 319.35 278.62 319.67 275.46C320.07 271.56 320.22 267.55 319.08 263.8C317.94 260.05 315.29 256.57 311.57 255.33C311.89 255.67 312.21 256.02 312.52 256.36L311.26 255.44C312.04 257.06 312.82 258.69 313.6 260.32C313.31 260.73 313.02 261.14 312.74 261.55C314.03 260.87 315.68 261.85 316.27 263.19C316.86 264.52 316.7 266.05 316.56 267.5C315.8 275.59 316.21 283.78 317.74 291.76C317.59 293.62 317.27 295.51 316.3 297.1C315.25 298.81 313.29 300.1 311.3 299.81C311.74 297.89 311 295.62 309.37 294.48C307.35 297.28 308.54 301.63 308.85 304.82C309.32 309.65 310.09 314.45 311.17 319.18C311.48 315.08 312.34 311.02 313.72 307.14C314.81 311.09 315.9 315.04 316.98 318.99C317.01 317.88 317.06 316.73 317.6 315.76C318.14 314.79 319.33 314.09 320.36 314.48C321.21 314.8 321.67 315.7 322.01 316.54C324.84 323.33 325.55 330.98 324.02 338.17C325.36 338.92 327.14 338.01 327.88 336.67C328.62 335.33 328.62 333.71 328.59 332.17C328.36 318.83 328.12 305.49 327.89 292.15L327.93 292.12Z" fill="white"/>
<path d="M294.03 296.35C293.39 297.47 296.01 301.93 296.44 302.99C298.64 308.37 300.85 313.75 303.05 319.13C302.32 312.04 300.59 305.06 297.92 298.46C297.47 297.34 295.29 294.12 294.02 296.35H294.03Z" fill="white"/>
<path d="M297.45 267.83C297.07 268.4 296.54 269.1 295.89 268.9C295.28 268.71 295.18 267.91 295.19 267.28C295.25 263.54 295.31 259.79 295.37 256.05C292.35 258.22 292.74 261.06 292.52 264.29C292.4 266.16 292.94 275.09 291.66 276.18C294.65 273.63 297.18 270.55 299.1 267.12C298.58 266.69 297.82 267.27 297.45 267.83Z" fill="white"/>
</g>
</g>
<path d="M260.71 293.08C259.55 294 258.55 295.12 257.78 296.38L260.71 293.08Z" fill="white"/>
<path d="M302.25 384.08L291.81 351.23C282.01 341.14 264.01 331.9 262.45 317.93C260.44 299.99 257.68 300.71 257.68 296.25C257.68 296.09 258.93 294.01 260.44 289.46C260.93 287.98 261.18 285.82 261.45 284.05C261.73 282.18 263.4 280.8 265.29 280.94C266.56 281.03 267.84 281.51 268.78 282.3C270.6 283.84 271.52 286.24 271.74 288.61C271.98 290.99 271.6 293.37 271.22 295.73C273.15 299.37 274.24 303.87 275.05 307.91C275.9 304.55 276.48 301.18 277.33 297.82C277.54 297.69 277.45 297.43 277.65 297.3C275.93 294.18 277.21 294.26 273.76 287.35C267.95 275.71 261.58 264.54 256.58 249.76C256.18 248.62 256.08 246.7 256.39 245.52C257.56 241.12 262.05 241.82 264.15 244.19C264.72 244.81 265.15 245.53 265.5 246.29C267.9 251.51 272.81 259.48 276.28 264.06L288.24 279.9C288.24 279.9 291.81 276.55 292.31 275.12H292.32C292.79 273.68 292.32 262.42 292.32 262.42C292.32 262.42 291.6 264.58 289.69 264.58C288.31 264.58 285.57 265.56 283.43 263.46C281.69 261.75 281.5 259 282.82 256.94L287.29 249.97C287.29 249.97 290.4 246.86 294.95 248.53C299.5 250.21 304.05 254.04 304.05 254.04C304.05 254.04 308.13 253.56 311.71 254.99C315.31 256.43 319.28 261 319.28 261C319.28 261 323.36 260.98 325.27 262.18C325.75 262.48 332.59 271.71 330.86 279.38C329.83 283.95 329.45 290.51 328.97 292.3L328.85 336.5L337.14 365.81" stroke="#263238" stroke-miterlimit="10"/>
<path d="M305.11 255.59C306.88 262.11 307.79 268.86 307.84 275.61C307.84 276.74 307.84 277.9 308.2 278.97C308.56 280.04 309.39 281.03 310.49 281.26" stroke="#263238" stroke-miterlimit="10"/>
<path d="M319.25 262.16C322.22 268.42 319.18 282.4 319.4 283.39C319.62 284.38 320.19 285.33 321.09 285.79" stroke="#263238" stroke-miterlimit="10"/>
<path d="M293.47 254.73C293.12 256.72 292.83 259.03 292.48 261.02C290.16 259.04 288.68 256.1 288.47 253.06" stroke="#263238" stroke-miterlimit="10"/>
<path d="M274.31 308.09C273.59 308.41 272.87 308.72 272.15 309.04" stroke="#263238" stroke-miterlimit="10"/>
<path d="M274.86 309.82C274.51 311.48 274.5 313.21 274.84 314.88" stroke="#263238" stroke-miterlimit="10"/>
<path d="M287.5 291.13C288.3 292.57 289.1 294 289.89 295.44" stroke="#263238" stroke-miterlimit="10"/>
<path d="M292.09 275.36C292.88 274.24 293.68 273.12 294.47 272" stroke="#263238" stroke-miterlimit="10"/>
<path d="M325.57 291.13C325.33 292.01 325.09 292.89 324.85 293.76" stroke="#263238" stroke-miterlimit="10"/>
<path d="M319.75 283.92C320.45 281.68 321.15 279.44 321.86 277.2" stroke="#263238" stroke-miterlimit="10"/>
<path d="M326.79 272.01C328.03 271.29 329.82 271.85 330.43 273.14" stroke="#263238" stroke-miterlimit="10"/>
<path d="M312.41 260.53C314.06 260.05 315.95 260.48 317.23 261.63" stroke="#263238" stroke-miterlimit="10"/>
<path d="M267.88 267.2C269.42 265.49 271.8 264.59 274.09 264.86" stroke="#263238" stroke-miterlimit="10"/>
<path d="M258.85 248.33C260.28 247.28 262.14 246.85 263.89 247.15" stroke="#263238" stroke-miterlimit="10"/>
<path d="M260.71 293.08C259.55 294 258.55 295.12 257.78 296.38" stroke="#263238" stroke-miterlimit="10"/>
<path d="M261.67 288.54C263.25 287.41 265.77 289.94 267.22 288.65C267.8 288.14 267.84 287.25 267.71 286.48C267.58 285.72 267.31 284.95 267.42 284.19" stroke="#263238" stroke-miterlimit="10"/>
<path d="M306.26 281.61C308.18 285.55 308.58 290.21 307.36 294.43" stroke="#263238" stroke-miterlimit="10"/>
<path d="M317.87 287.77C318.19 289.64 317.82 291.62 316.87 293.27" stroke="#263238" stroke-miterlimit="10"/>
<path opacity="0.2" d="M221.19 302.78C221.28 303.47 221.25 304.18 221.1 304.86C220.45 307.87 218.57 316.64 217.88 321.44C217.06 327.3 207.59 345.44 207.59 345.44C207.59 345.44 198.87 356.28 194.43 361.92C192.25 364.69 188.8 375.9 185.87 386.58C182.17 385.46 178.51 384.25 174.87 382.96C171.86 381.89 168.85 380.76 165.88 379.59C161.7 377.94 156.37 375.32 150.25 371.97C151.91 365.94 153.02 361.3 153 361.03C152.95 360.4 156.56 353.45 156.56 353.45L153.41 312.01L151.55 305.7C150.58 302.44 149.97 299.08 149.72 295.72C149.33 290.59 149.76 285.42 151.01 280.39L156.44 272.33L158.98 272.14L166.84 261.16C166.84 261.16 171.09 259.88 172.18 263.08C173.27 266.29 168.64 272.26 168.64 272.26L167.05 282.13L170.83 291.37L172.79 292.09C172.79 292.09 173.45 275.82 173 272.57L177.18 257.72C177.18 257.72 179.67 252.76 180.44 250.26C181.2 247.77 185.67 245.3 188.24 249.67C188.24 249.67 189.67 251.89 188.64 254.94C187.59 257.99 186.72 260.39 186.72 260.39C186.72 260.39 185.77 272.97 185.47 273.32C185.17 273.65 187.32 292.05 187.32 292.05L188.96 292.78L189.54 275.23L192.95 258.74C192.95 258.74 192.67 250.81 198.26 251.77C198.26 251.77 200.88 251.47 202.37 254.33C203.86 257.18 202.44 276.16 202.44 276.16L203.82 295.78L206.03 310.91L208.63 300.54C208.63 300.54 208.78 285.68 218.16 284.41C218.16 284.41 220.95 283.91 221.52 285.85C222.09 287.78 220.13 291.75 220.41 295.55C220.62 298.22 221 301.23 221.19 302.78Z" fill="black"/>
<path d="M218.34 284.42C217.91 282.44 215.1 282.73 215.1 282.73C205.65 283.29 204.38 298.1 204.38 298.1L201 308.24L199.94 292.98L200.05 273.31C200.05 273.31 202.91 254.49 201.63 251.53C200.37 248.57 197.72 248.67 197.72 248.67C192.22 247.29 191.9 255.22 191.9 255.22L187.26 271.4L185.36 288.85L183.78 288C183.78 288 183.03 269.49 183.35 269.18C183.67 268.86 185.58 256.38 185.58 256.38C185.58 256.38 186.63 254.06 187.9 251.09C189.16 248.13 187.9 245.8 187.9 245.8C185.67 241.25 181.03 243.37 180.08 245.8C179.13 248.23 176.27 252.99 176.27 252.99L170.97 267.48C171.17 270.75 169.29 286.93 169.29 286.93L167.39 286.06L164.32 276.56L166.65 266.83C166.65 266.83 171.72 261.23 170.88 257.95C170.03 254.68 165.7 255.63 165.7 255.63L157.03 265.99H154.48L148.46 273.61C146.83 278.53 146.01 283.66 146.01 288.8C146.01 292.17 146.36 295.56 147.08 298.89L148.46 305.32V346.88C148.46 346.88 144.34 353.54 144.34 354.17C144.34 354.46 142.64 359.71 140.26 366.26C150.63 372.36 159.56 377.08 165.89 379.57C168.86 380.75 171.87 381.87 174.89 382.94C178.69 372.27 183.13 360.85 185.58 358.19C190.44 352.9 199.95 342.75 199.95 342.75C199.95 342.75 210.77 325.38 212.03 319.6C213.08 314.86 215.61 306.26 216.49 303.3C216.69 302.64 216.78 301.93 216.74 301.23C216.67 299.67 216.52 296.64 216.52 293.96C216.52 290.15 218.78 286.34 218.36 284.37L218.34 284.42Z" fill="white"/>
<mask id="mask1_17_1198" style="mask-type:luminance" maskUnits="userSpaceOnUse" x="140" y="243" width="79" height="140">
<path d="M218.34 284.42C217.91 282.44 215.1 282.73 215.1 282.73C205.65 283.29 204.38 298.1 204.38 298.1L201 308.24L199.94 292.98L200.05 273.31C200.05 273.31 202.91 254.49 201.63 251.53C200.37 248.57 197.72 248.67 197.72 248.67C192.22 247.29 191.9 255.22 191.9 255.22L187.26 271.4L185.36 288.85L183.78 288C183.78 288 183.03 269.49 183.35 269.18C183.67 268.86 185.58 256.38 185.58 256.38C185.58 256.38 186.63 254.06 187.9 251.09C189.16 248.13 187.9 245.8 187.9 245.8C185.67 241.25 181.03 243.37 180.08 245.8C179.13 248.23 176.27 252.99 176.27 252.99L170.97 267.48C171.17 270.75 169.29 286.93 169.29 286.93L167.39 286.06L164.32 276.56L166.65 266.83C166.65 266.83 171.72 261.23 170.88 257.95C170.03 254.68 165.7 255.63 165.7 255.63L157.03 265.99H154.48L148.46 273.61C146.83 278.53 146.01 283.66 146.01 288.8C146.01 292.17 146.36 295.56 147.08 298.89L148.46 305.32V346.88C148.46 346.88 144.34 353.54 144.34 354.17C144.34 354.46 142.64 359.71 140.26 366.26C150.63 372.36 159.56 377.08 165.89 379.57C168.86 380.75 171.87 381.87 174.89 382.94C178.69 372.27 183.13 360.85 185.58 358.19C190.44 352.9 199.95 342.75 199.95 342.75C199.95 342.75 210.77 325.38 212.03 319.6C213.08 314.86 215.61 306.26 216.49 303.3C216.69 302.64 216.78 301.93 216.74 301.23C216.67 299.67 216.52 296.64 216.52 293.96C216.52 290.15 218.78 286.34 218.36 284.37L218.34 284.42Z" fill="white"/>
</mask>
<g mask="url(#mask1_17_1198)">
<path d="M153.44 280.23C155.05 278.22 158.38 277.44 160.25 279.21C161.33 280.23 161.69 281.77 161.96 283.22C162.23 284.67 162.5 286.22 163.47 287.34C164.43 288.46 166.36 288.9 167.38 287.83C167.51 290.02 167.65 292.21 167.78 294.4C170.12 290.34 171.32 285.64 171.22 280.96C171.17 278.69 170.83 276.37 171.36 274.16C171.89 271.95 173.6 269.79 175.88 269.69C178.4 269.58 180.39 272.03 180.88 274.51C181.37 276.99 180.8 279.53 180.64 282.05C180.41 285.89 181.16 289.79 182.81 293.26C183.34 292.19 183.87 291.12 184.4 290.04C184.88 292.19 185.35 294.34 185.83 296.49C186.24 291.75 186.66 287.02 187.07 282.28C187.19 280.94 187.31 279.56 187.94 278.38C188.56 277.19 189.81 276.23 191.15 276.36C192.95 276.54 193.99 278.46 194.59 280.17C199.1 292.91 197.24 306.91 195.33 320.29C196.58 320.51 197.63 319.26 197.95 318.02C198.26 316.79 198.15 315.45 198.62 314.27C199.09 313.09 200.54 312.11 201.61 312.79C203.19 313.78 202.08 316.85 203.74 317.7C204.25 313.74 205.83 309.93 208.27 306.77C209.38 305.33 211.04 303.9 212.8 304.36C214.11 304.7 214.97 306.04 215.16 307.38C215.35 308.72 217.29 303.18 216.96 304.49C217.72 296.78 216.2 295.96 216.96 288.25C217.1 286.86 219.35 284.44 218.39 283.42C217.48 282.45 214.76 281.03 213.55 281.59C212.34 282.15 208.41 284.1 207.63 285.18C202.72 291.96 203.05 301.79 201.52 310.03C200.22 297.47 198.92 284.7 201.22 272.29C202.49 265.44 204.83 258.31 202.62 251.7C201.61 248.69 198.93 245.67 195.81 246.24C193.29 246.7 191.76 249.25 190.74 251.6C187.3 259.5 185.77 268.08 184.26 276.57C186.14 268.03 188.02 259.49 189.9 250.95C190.39 248.73 190.88 246.44 190.48 244.2C190.08 241.96 188.55 239.77 186.32 239.3C184.11 238.84 181.92 240.14 180.26 241.66C174.32 247.1 172.1 255.39 170.17 263.21C170.85 261.17 171.54 259.05 171.33 256.91C171.12 254.77 169.76 252.58 167.65 252.12C164.93 251.52 162.45 253.95 161.26 256.47C160.06 258.99 159.47 261.88 157.57 263.92C156.18 262.36 153.57 262.45 151.82 263.6C150.08 264.76 149.02 266.69 148.17 268.6C145.04 275.62 143.7 283.42 144.3 291.08C145.68 288.01 149.16 286.02 152.51 286.41C152.31 284.71 152.11 283 151.91 281.3" fill="#EA8901"/>
<path d="M160.03 296.5C159.95 297.76 159.86 299.02 159.78 300.29C160.17 299.24 161.71 298.85 162.55 299.59C162.36 298.79 162.86 298.01 163.18 297.25C163.5 296.49 163.53 295.41 162.79 295.05C161.91 294.62 161.04 295.63 160.58 296.49C160.54 296.18 160.5 295.86 160.46 295.55L160.03 296.5Z" fill="#EA8901"/>
<path d="M174.37 294.24C173.34 295.42 172.63 296.88 172.35 298.42C172.78 297.99 173.24 297.56 173.81 297.35C174.38 297.14 175.11 297.23 175.47 297.72C175.7 298.02 175.78 298.46 176.11 298.64C176.45 298.82 176.88 298.6 177.09 298.28C177.29 297.96 177.32 297.56 177.35 297.18C177.4 296.45 177.44 295.71 177.23 295.01C177.02 294.31 176.5 293.66 175.79 293.51C175.08 293.36 174.23 293.88 174.23 294.61L174.38 294.25L174.37 294.24Z" fill="#EA8901"/>
<path d="M188.26 297.69C187.16 299.16 186.44 300.91 186.16 302.72C186.9 302.61 187.51 302.13 188.1 301.68C188.69 301.22 189.33 300.76 190.07 300.7C190.81 300.64 191.65 301.18 191.62 301.92C191.48 301.08 191.62 300.22 191.7 299.38C191.78 298.54 191.83 297.65 191.51 296.86C191.19 296.07 190.43 295.4 189.58 295.45C188.73 295.5 188 296.49 188.4 297.24L188.24 297.69H188.26Z" fill="#EA8901"/>
<path d="M150.05 302.7C149.28 304.14 148.88 305.77 148.89 307.41C148.89 306.66 149.61 306.05 150.35 305.94C151.09 305.83 151.84 306.12 152.49 306.51C152.64 305.75 152.79 304.97 152.63 304.22C152.47 303.47 151.92 302.74 151.16 302.61C150.4 302.48 149.56 303.22 149.77 303.96C149.69 303.77 149.61 303.58 149.53 303.38L150.05 302.69V302.7Z" fill="#EA8901"/>
<path opacity="0.5" d="M153.44 280.23C155.05 278.22 158.38 277.44 160.25 279.21C161.33 280.23 161.69 281.77 161.96 283.22C162.23 284.67 162.5 286.22 163.47 287.34C164.43 288.46 166.36 288.9 167.38 287.83C167.51 290.02 167.65 292.21 167.78 294.4C170.12 290.34 171.32 285.64 171.22 280.96C171.17 278.69 170.83 276.37 171.36 274.16C171.89 271.95 173.6 269.79 175.88 269.69C178.4 269.58 180.39 272.03 180.88 274.51C181.37 276.99 180.8 279.53 180.64 282.05C180.41 285.89 181.16 289.79 182.81 293.26C183.34 292.19 183.87 291.12 184.4 290.04C184.88 292.19 185.35 294.34 185.83 296.49C186.24 291.75 186.66 287.02 187.07 282.28C187.19 280.94 187.31 279.56 187.94 278.38C188.56 277.19 189.81 276.23 191.15 276.36C192.95 276.54 193.99 278.46 194.59 280.17C199.1 292.91 197.24 306.91 195.33 320.29C196.58 320.51 197.63 319.26 197.95 318.02C198.26 316.79 198.15 315.45 198.62 314.27C199.09 313.09 200.54 312.11 201.61 312.79C203.19 313.78 202.08 316.85 203.74 317.7C204.25 313.74 205.83 309.93 208.27 306.77C209.38 305.33 211.04 303.9 212.8 304.36C214.11 304.7 214.97 306.04 215.16 307.38C215.35 308.72 217.29 303.18 216.96 304.49C217.72 296.78 216.2 295.96 216.96 288.25C217.1 286.86 219.35 284.44 218.39 283.42C217.48 282.45 214.76 281.03 213.55 281.59C212.34 282.15 208.41 284.1 207.63 285.18C202.72 291.96 203.05 301.79 201.52 310.03C200.22 297.47 198.92 284.7 201.22 272.29C202.49 265.44 204.83 258.31 202.62 251.7C201.61 248.69 198.93 245.67 195.81 246.24C193.29 246.7 191.76 249.25 190.74 251.6C187.3 259.5 185.77 268.08 184.26 276.57C186.14 268.03 188.02 259.49 189.9 250.95C190.39 248.73 190.88 246.44 190.48 244.2C190.08 241.96 188.55 239.77 186.32 239.3C184.11 238.84 181.92 240.14 180.26 241.66C174.32 247.1 172.1 255.39 170.17 263.21C170.85 261.17 171.54 259.05 171.33 256.91C171.12 254.77 169.76 252.58 167.65 252.12C164.93 251.52 162.45 253.95 161.26 256.47C160.06 258.99 159.47 261.88 157.57 263.92C156.18 262.36 153.57 262.45 151.82 263.6C150.08 264.76 149.02 266.69 148.17 268.6C145.04 275.62 143.7 283.42 144.3 291.08C145.68 288.01 149.16 286.02 152.51 286.41C152.31 284.71 152.11 283 151.91 281.3" fill="white"/>
<g opacity="0.5">
<path d="M160.03 296.5C159.95 297.76 159.86 299.02 159.78 300.29C160.17 299.24 161.71 298.85 162.55 299.59C162.36 298.79 162.86 298.01 163.18 297.25C163.5 296.49 163.53 295.41 162.79 295.05C161.91 294.62 161.04 295.63 160.58 296.49C160.54 296.18 160.5 295.86 160.46 295.55L160.03 296.5Z" fill="white"/>
<path d="M174.37 294.24C173.34 295.42 172.63 296.88 172.35 298.42C172.78 297.99 173.24 297.56 173.81 297.35C174.38 297.14 175.11 297.23 175.47 297.72C175.7 298.02 175.78 298.46 176.11 298.64C176.45 298.82 176.88 298.6 177.09 298.28C177.29 297.96 177.32 297.56 177.35 297.18C177.4 296.45 177.44 295.71 177.23 295.01C177.02 294.31 176.5 293.66 175.79 293.51C175.08 293.36 174.23 293.88 174.23 294.61L174.38 294.25L174.37 294.24Z" fill="white"/>
<path d="M188.26 297.69C187.16 299.16 186.44 300.91 186.16 302.72C186.9 302.61 187.51 302.13 188.1 301.68C188.69 301.22 189.33 300.76 190.07 300.7C190.81 300.64 191.65 301.18 191.62 301.92C191.48 301.08 191.62 300.22 191.7 299.38C191.78 298.54 191.83 297.65 191.51 296.86C191.19 296.07 190.43 295.4 189.58 295.45C188.73 295.5 188 296.49 188.4 297.24L188.24 297.69H188.26Z" fill="white"/>
<path d="M150.05 302.7C149.28 304.14 148.88 305.77 148.89 307.41C148.89 306.66 149.61 306.05 150.35 305.94C151.09 305.83 151.84 306.12 152.49 306.51C152.64 305.75 152.79 304.97 152.63 304.22C152.47 303.47 151.92 302.74 151.16 302.61C150.4 302.48 149.56 303.22 149.77 303.96C149.69 303.77 149.61 303.58 149.53 303.38L150.05 302.69V302.7Z" fill="white"/>
</g>
</g>
<path d="M140.25 366.28C142.63 359.73 144.33 354.48 144.33 354.19C144.33 353.56 148.45 346.9 148.45 346.9V305.34L147.07 298.91C146.35 295.58 146 292.19 146 288.82C146 283.67 146.82 278.55 148.45 273.63L154.47 266.01H157.02L165.69 255.65C165.69 255.65 170.02 254.7 170.87 257.97C171.72 261.26 166.64 266.85 166.64 266.85L164.31 276.58L167.38 286.08L169.28 286.95C169.28 286.95 171.16 270.77 170.96 267.5L176.26 253.01C176.26 253.01 179.12 248.25 180.07 245.82C181.02 243.39 185.67 241.27 187.89 245.82C187.89 245.82 189.15 248.14 187.89 251.11C186.62 254.07 185.57 256.4 185.57 256.4C185.57 256.4 183.67 268.88 183.34 269.2C183.02 269.51 183.77 288.02 183.77 288.02L185.35 288.87L187.25 271.42L191.89 255.24C191.89 255.24 192.21 247.31 197.71 248.69C197.71 248.69 200.35 248.58 201.62 251.55C202.89 254.5 200.04 273.33 200.04 273.33L199.93 293L200.99 308.26L204.37 298.12C204.37 298.12 205.64 283.31 215.09 282.75C215.09 282.75 217.9 282.46 218.33 284.44C218.75 286.41 216.49 290.22 216.49 294.03C216.49 296.71 216.64 299.73 216.71 301.3C216.75 302 216.67 302.7 216.46 303.37C215.58 306.32 213.05 314.93 212 319.67C210.74 325.45 199.92 342.82 199.92 342.82C199.92 342.82 190.41 352.97 185.55 358.26C183.1 360.92 178.66 372.34 174.86 383.01" stroke="#263238" stroke-miterlimit="10"/>
<path d="M169.1 288.52C169.65 290.49 169.1 292.74 167.68 294.22L169.1 288.52Z" fill="white"/>
<path d="M169.1 288.52C169.65 290.49 169.1 292.74 167.68 294.22" stroke="#263238" stroke-miterlimit="10"/>
<path d="M152.98 302.5C154.36 300.37 155.69 297.45 155.32 294.94C154.6 290.03 152.36 284.38 153.37 279.52C154.01 276.42 154.66 273.31 155.3 270.21" fill="white"/>
<path d="M152.98 302.5C154.36 300.37 155.69 297.45 155.32 294.94C154.6 290.03 152.36 284.38 153.37 279.52C154.01 276.42 154.66 273.31 155.3 270.21" stroke="#263238" stroke-miterlimit="10"/>
<path d="M192.85 256.12C194.48 255.69 196.21 255.7 197.84 256.13C197.86 255.67 197.88 255.2 197.9 254.74" stroke="#263238" stroke-miterlimit="10"/>
<path d="M179.72 249.87C180.68 250.56 182.03 250.65 183.07 250.1C184.11 249.55 184.8 248.38 184.77 247.2" stroke="#263238" stroke-miterlimit="10"/>
<path d="M215.86 284.58C213.08 285.21 211.01 288.08 211.27 290.91C212.09 291.15 212.9 291.4 213.72 291.64" stroke="#263238" stroke-miterlimit="10"/>
<path d="M183.68 285.81C183.79 287.49 183.59 291.5 183.7 293.18L183.68 285.81Z" fill="white"/>
<path d="M183.68 285.81C183.79 287.49 183.59 291.5 183.7 293.18" stroke="#263238" stroke-miterlimit="10"/>
<path d="M185.52 288.13C185.32 290.88 185.12 293.63 184.91 296.37C184.93 296.02 184.94 295.67 184.96 295.32" fill="white"/>
<path d="M185.52 288.13C185.32 290.88 185.12 293.63 184.91 296.37C184.93 296.02 184.94 295.67 184.96 295.32" stroke="#263238" stroke-miterlimit="10"/>
<path d="M200.78 311.31C201.51 314.32 201.18 317.57 199.85 320.37L200.78 311.31Z" fill="white"/>
<path d="M200.78 311.31C201.51 314.32 201.18 317.57 199.85 320.37" stroke="#263238" stroke-miterlimit="10"/>
<path d="M175.43 296.9C173.25 299.29 173.57 305.02 175.11 308.18" stroke="#263238" stroke-miterlimit="10"/>
<path d="M191.54 300.84C191.59 303.42 190.65 306.01 188.87 308.17" stroke="#263238" stroke-miterlimit="10"/>
<path d="M159.55 298.04C159.19 300.44 159.73 302.97 161.04 305.01" stroke="#263238" stroke-miterlimit="10"/>
<path d="M150.27 305.5C150.16 307.39 150.72 309.3 151.81 310.84" stroke="#263238" stroke-miterlimit="10"/>
<path d="M162.99 259.4C164.12 258.85 165.58 259.09 166.49 259.96C166.9 259.42 167.31 258.87 167.73 258.33" stroke="#263238" stroke-miterlimit="10"/>
<path d="M173.25 266.74C174.9 265.69 177.32 266.1 178.54 267.64" stroke="#263238" stroke-miterlimit="10"/>
<path d="M189.27 271.74C191.05 270.93 193.2 270.98 194.95 271.86" stroke="#263238" stroke-miterlimit="10"/>
<path d="M153.62 280.13C154.66 278.34 156.81 277.27 158.86 277.53" stroke="#263238" stroke-miterlimit="10"/>
<path d="M146.91 289.7C146.94 288.41 148 287.21 149.28 287.04" stroke="#263238" stroke-miterlimit="10"/>
<path d="M404.58 217.84C427.472 217.84 446.03 199.282 446.03 176.39C446.03 153.498 427.472 134.94 404.58 134.94C381.688 134.94 363.13 153.498 363.13 176.39C363.13 199.282 381.688 217.84 404.58 217.84Z" stroke="#263238" stroke-linecap="round" stroke-linejoin="round"/>
<path opacity="0.2" d="M451.5 177.47C442.66 191.96 439.52 190.01 409.38 204.45C394.08 211.78 379.29 188.21 389.29 164.02C389.78 162.84 394.1 156.87 394.1 156.87C395.92 148.87 402.56 142.17 410.55 140.29C418.53 138.4 427.47 141.41 432.68 147.75C438.34 142.74 446.55 140.88 453.86 142.69C454.21 143.71 454.54 144.71 454.86 145.69C454.98 146.07 455.11 146.44 455.22 146.82C455.6 147.99 455.96 149.16 456.29 150.34C456.95 152.58 457.56 154.83 458.13 157.1C454.8 156.17 451.45 156.15 448.29 157.69C446.08 158.77 444.23 160.55 441.93 161.43C439.63 162.3 436.45 161.81 435.57 159.51C436.68 164.13 441.53 162.75 446.18 163.66C453.39 165.08 455.21 171.36 451.5 177.46V177.47Z" fill="black"/>
<path d="M437.89 170.33C437.89 170.33 445.31 169.32 448.83 169.85C451.07 170.18 452.44 171.49 453.1 172.3C453.4 172.68 453.58 173.14 453.61 173.62L454.01 179.42C454.06 180.08 453.83 180.74 453.37 181.22C451.92 182.73 447.55 185.48 434.62 186.47C416.43 187.86 437.89 170.34 437.89 170.34V170.33Z" fill="white" stroke="#263238" stroke-linecap="round" stroke-linejoin="round"/>
<path d="M432.46 155.34C434.55 157.94 438.53 163.83 438.53 172.97C438.53 179.88 430.53 203.48 410.04 206.35C388.35 209.39 370.92 190.83 374.64 168.49C377.22 153.04 415.05 133.69 432.46 155.33V155.34Z" fill="white" stroke="#263238" stroke-linecap="round" stroke-linejoin="round"/>
<path d="M405.96 201.2C423.341 201.2 437.43 187.863 437.43 171.41C437.43 154.957 423.341 141.62 405.96 141.62C388.58 141.62 374.49 154.957 374.49 171.41C374.49 187.863 388.58 201.2 405.96 201.2Z" fill="white"/>
<path d="M405.9 197.42C420.171 197.42 431.74 186.473 431.74 172.97C431.74 159.467 420.171 148.52 405.9 148.52C391.629 148.52 380.06 159.467 380.06 172.97C380.06 186.473 391.629 197.42 405.9 197.42Z" fill="#263238"/>
<path d="M437.43 171.41C437.43 154.96 423.34 141.62 405.96 141.62C388.58 141.62 374.49 154.96 374.49 171.41" stroke="#263238" stroke-linecap="round" stroke-linejoin="round"/>
<path d="M429.13 191.57C434.29 186.27 437.43 179.19 437.43 171.41" stroke="#263238" stroke-linecap="round" stroke-linejoin="round"/>
<path d="M383.92 192.67C389.6 197.95 397.38 201.2 405.96 201.2C411.23 201.2 416.2 199.97 420.57 197.8" stroke="#263238" stroke-linecap="round" stroke-linejoin="round"/>
<path d="M379.38 187.36C379.79 187.97 380.23 188.57 380.69 189.16" stroke="#263238" stroke-linecap="round" stroke-linejoin="round"/>
<path d="M374.49 171.41C374.49 175.96 375.57 180.26 377.49 184.12" stroke="#263238" stroke-linecap="round" stroke-linejoin="round"/>
<path d="M452.15 179.56C452.15 179.56 446.54 175.64 437.44 179.19L452.15 179.56Z" fill="white"/>
<path d="M452.15 179.56C452.15 179.56 446.54 175.64 437.44 179.19" stroke="#263238" stroke-linecap="round" stroke-linejoin="round"/>
<path d="M447.32 182.29C445.17 182.93 441.57 183.66 435.68 184.12L447.32 182.29Z" fill="white"/>
<path d="M447.32 182.29C445.17 182.93 441.57 183.66 435.68 184.12" stroke="#263238" stroke-linecap="round" stroke-linejoin="round"/>
<path d="M450.23 181.05C450.23 181.05 449.89 181.35 448.83 181.77L450.23 181.05Z" fill="white"/>
<path d="M450.23 181.05C450.23 181.05 449.89 181.35 448.83 181.77" stroke="#263238" stroke-linecap="round" stroke-linejoin="round"/>
<path d="M455.22 146.82C455.11 146.44 454.98 146.07 454.86 145.69C452.95 139.77 450.49 133.27 447.5 126.41C446.95 125.14 446.37 123.85 445.79 122.55C445.56 122.57 445.34 122.59 445.12 122.61C442.25 122.9 439.23 123.26 436.87 124.89C434.5 126.55 433.1 129.96 434.63 132.41C436.13 134.84 440.06 136.19 439.44 138.96C433.03 142.57 425.21 142.15 418.08 143.97C413.79 145.06 409.73 146.99 406.17 149.59C406.16 149.59 406.16 149.59 406.15 149.59C405.02 150.44 403.93 151.34 402.91 152.31C402.46 152.74 401.99 153.21 401.59 153.73C401.59 153.73 401.587 153.737 401.58 153.75C400.99 154.5 400.54 155.34 400.45 156.29C400.2 158.96 402.63 160.78 405.22 161.94C405.7 162.16 405.67 162.85 405.18 163.02C403.49 163.7 401.84 164.49 400.51 165.72C400.5 165.72 400.49 165.73 400.48 165.74C399.66 166.48 400.33 167.87 401.45 167.72C401.57 167.7 401.72 167.69 401.85 167.68C402.95 167.6 403.98 167.73 404.87 168.04C406.4 168.58 407.47 169.62 407.58 170.9C407.74 172.93 405.43 174.76 402.43 174.99C401.7 175.06 402.26 175.93 403.33 176.11C405.46 176.49 407.63 176.08 409.73 175.59C412.24 174.99 414.92 174.12 416.34 171.97C416.94 171.06 417.12 169.87 416.94 168.79C416.69 167.31 415.76 166.02 414.28 165.87C418.92 165.32 423.52 164.4 428 163.12H428.01L429.42 162.69C430.76 162.29 432.17 161.8 433.29 161C433.99 160.5 434.57 159.91 434.98 159.14C436.02 157.13 434.55 153.95 432.33 154.37C438.78 151.84 445.6 150.36 452.12 148.03C453.16 147.65 454.2 147.25 455.22 146.81V146.82Z" fill="white"/>
<path opacity="0.2" d="M405.78 60.32C399.74 65.69 392.84 70.25 385.88 74.36C349.47 95.9 308.34 108.8 266.5 115.09C224.67 121.38 182.06 121.19 139.9 117.72C131.62 117.04 123.2 116.2 115.59 112.86C109.14 110.02 103.29 105.08 100.55 98.69C109.68 88.29 118.17 77.77 127.62 67.84C129.87 65.47 132.17 63.14 134.54 60.85C136.54 58.94 138.57 57.06 140.68 55.22C143.09 53.1 145.57 51.03 148.17 49.03C151.72 46.27 155.46 43.62 159.46 41.09C160.44 40.46 161.41 39.85 162.39 39.25C262.1 -22.72 335.49 -2.49001 384.45 39.25C388.14 42.38 391.7 45.65 395.11 49.03C397.19 51.04 399.2 53.12 401.15 55.22C401.37 55.44 401.57 55.67 401.78 55.91C403.15 57.37 404.48 58.84 405.78 60.32Z" fill="black"/>
<path d="M409.72 50.38L74.25 51.91L79.32 44.31C81.76 40.65 85.86 38.46 90.26 38.46H393.82C397.8 38.46 401.57 40.26 404.07 43.36L409.72 50.38Z" fill="white" stroke="#263238" stroke-linecap="round" stroke-linejoin="round"/>
<path d="M247.83 100.67H229.45C210.589 100.67 195.3 115.959 195.3 134.82V153.2C195.3 172.061 210.589 187.35 229.45 187.35H247.83C266.69 187.35 281.98 172.061 281.98 153.2V134.82C281.98 115.959 266.69 100.67 247.83 100.67Z" fill="#757575" stroke="#263238" stroke-linecap="round" stroke-linejoin="round"/>
<path d="M211.05 151.33V163.65C211.05 167.52 214.18 170.65 218.05 170.65H260.32C264.17 170.65 267.28 167.54 267.32 163.7C267.37 158.16 267.67 151.33 267.67 151.33H211.05Z" fill="#999999" stroke="#263238" stroke-linecap="round" stroke-linejoin="round"/>
<path d="M365.76 155.45H118.55C115.94 155.45 113.6 153.85 112.65 151.42L74.5201 53.56C73.5201 51 75.4102 48.24 78.1602 48.24H406.15C408.9 48.24 410.79 51 409.79 53.56L371.66 151.42C370.71 153.85 368.37 155.45 365.76 155.45Z" fill="#BFBFBF" stroke="#263238" stroke-linecap="round" stroke-linejoin="round"/>
<path d="M367.59 146.92H116.12L81.52 54.43H402.03L367.59 146.92Z" fill="#263238"/>
<path d="M267.38 155.32H211.32V159.16H267.38V155.32Z" fill="#263238"/>
<path d="M330.86 142.95H153.28C152.3 142.95 151.37 142.51 151.2 141.96L125.94 61.71C125.66 60.81 126.44 60.08 127.7 60.08H356.43C357.69 60.08 358.47 60.81 358.19 61.71L332.93 141.96C332.76 142.51 331.83 142.95 330.85 142.95H330.86Z" fill="#EA8901"/>
<path d="M330.2 141.13H153.94L132.47 70.62H351.67L330.2 141.13Z" fill="#263238"/>
<path d="M179.24 88.12H145.87C145.05 88.12 144.5 88.56 144.66 89.11C144.82 89.65 145.61 90.1 146.42 90.1H179.6C180.42 90.1 181 89.66 180.91 89.11C180.81 88.56 180.06 88.12 179.24 88.12Z" fill="white"/>
<path d="M180.35 94.22H151.97C151.16 94.22 150.62 94.65 150.76 95.18C150.9 95.71 151.67 96.13 152.48 96.13H180.7C181.5 96.13 182.08 95.7 181.99 95.18C181.9 94.65 181.16 94.22 180.35 94.22Z" fill="white"/>
<path opacity="0.5" d="M181.43 100.1H149.23C148.43 100.1 147.91 100.51 148.05 101.02C148.19 101.53 148.95 101.94 149.74 101.94H181.76C182.55 101.94 183.12 101.53 183.03 101.02C182.94 100.51 182.22 100.1 181.42 100.1H181.43Z" fill="white"/>
<path d="M182.47 105.77H163.56C162.78 105.77 162.24 106.17 162.36 106.66C162.48 107.15 163.21 107.55 163.99 107.55H182.8C183.58 107.55 184.14 107.15 184.05 106.66C183.96 106.17 183.26 105.77 182.48 105.77H182.47Z" fill="white"/>
<path d="M183.48 111.26H152.36C151.59 111.26 151.08 111.65 151.21 112.12C151.35 112.59 152.07 112.98 152.84 112.98H183.79C184.55 112.98 185.11 112.6 185.02 112.12C184.93 111.64 184.24 111.26 183.47 111.26H183.48Z" fill="white"/>
<path d="M184.45 116.56H159.32C158.56 116.56 158.05 116.93 158.18 117.39C158.3 117.85 159.01 118.22 159.76 118.22H184.75C185.5 118.22 186.04 117.85 185.96 117.39C185.88 116.93 185.2 116.56 184.44 116.56H184.45Z" fill="white"/>
<path d="M185.39 121.69H160.67C159.93 121.69 159.42 122.05 159.54 122.5C159.66 122.94 160.35 123.3 161.09 123.3H185.68C186.42 123.3 186.95 122.94 186.87 122.5C186.79 122.06 186.12 121.69 185.38 121.69H185.39Z" fill="white"/>
<path d="M186.3 126.66H159.33C158.6 126.66 158.1 127.01 158.22 127.44C158.34 127.87 159.02 128.22 159.75 128.22H186.58C187.31 128.22 187.84 127.87 187.76 127.44C187.68 127.01 187.03 126.66 186.3 126.66Z" fill="white"/>
<path opacity="0.5" d="M187.19 131.47H169.77C169.05 131.47 168.55 131.81 168.65 132.23C168.75 132.65 169.42 132.98 170.13 132.98H187.46C188.18 132.98 188.7 132.64 188.62 132.23C188.55 131.81 187.9 131.47 187.18 131.47H187.19Z" fill="white"/>
<path opacity="0.5" d="M178.08 81.81H153.21C152.37 81.81 151.81 82.27 151.96 82.84C152.11 83.41 152.9 83.86 153.74 83.86H178.46C179.29 83.86 179.89 83.4 179.79 82.84C179.69 82.27 178.93 81.81 178.09 81.81H178.08Z" fill="white"/>
<path d="M176.87 75.25H142.25C141.4 75.25 140.84 75.73 141.01 76.32C141.18 76.91 142 77.38 142.85 77.38H177.27C178.12 77.38 178.72 76.91 178.62 76.32C178.51 75.73 177.74 75.25 176.88 75.25H176.87Z" fill="white"/>
<path d="M188.04 136.12H159.35C158.64 136.12 158.16 136.45 158.28 136.85C158.39 137.25 159.06 137.58 159.76 137.58H188.31C189.01 137.58 189.53 137.25 189.46 136.85C189.39 136.45 188.75 136.12 188.05 136.12H188.04Z" fill="white"/>
<path opacity="0.5" d="M190.96 90.35H197.43L197.11 87.88H190.59L190.96 90.35Z" fill="white"/>
<path opacity="0.5" d="M191.86 96.36H198.22L197.91 93.98H191.5L191.86 96.36Z" fill="white"/>
<path opacity="0.5" d="M192.73 102.17H198.98L198.68 99.86H192.39L192.73 102.17Z" fill="white"/>
<path opacity="0.5" d="M193.57 107.77H199.72L199.42 105.55H193.24L193.57 107.77Z" fill="white"/>
<path opacity="0.5" d="M194.39 113.19H200.43L200.14 111.04H194.07L194.39 113.19Z" fill="white"/>
<path opacity="0.5" d="M195.17 118.43H201.11L200.84 116.35H194.86L195.17 118.43Z" fill="white"/>
<path opacity="0.5" d="M195.94 123.5H201.78L201.52 121.49H195.63L195.94 123.5Z" fill="white"/>
<path opacity="0.5" d="M196.67 128.41H202.42L202.17 126.46H196.38L196.67 128.41Z" fill="white"/>
<path opacity="0.5" d="M197.39 133.16H203.05L202.8 131.28H197.1L197.39 133.16Z" fill="white"/>
<path opacity="0.5" d="M190.02 84.11H196.61L196.28 81.55H189.64L190.02 84.11Z" fill="white"/>
<path opacity="0.5" d="M189.05 77.64H195.76L195.41 74.98H188.65L189.05 77.64Z" fill="white"/>
<path opacity="0.5" d="M198.08 137.77H203.65L203.41 135.94H197.8L198.08 137.77Z" fill="white"/>
<path d="M232.19 127.44C232.18 127.01 232.76 126.66 233.49 126.66H329.31C330.04 126.66 330.53 127.01 330.41 127.44C330.28 127.87 329.59 128.22 328.87 128.22H233.54C232.81 128.22 232.21 127.87 232.2 127.44H232.19Z" fill="white"/>
<path d="M330.27 123.3H277.22C276.48 123.3 275.92 122.94 275.97 122.5C276.02 122.06 276.66 121.69 277.4 121.69H330.73C331.47 121.69 331.97 122.05 331.84 122.5C331.71 122.94 331.01 123.3 330.27 123.3Z" fill="white"/>
<path opacity="0.5" d="M264.62 123.3H248.12C247.38 123.3 246.79 122.94 246.79 122.5C246.79 122.06 247.4 121.69 248.15 121.69H264.74C265.48 121.69 266.06 122.05 266.02 122.5C265.99 122.94 265.36 123.3 264.62 123.3Z" fill="white"/>
<path d="M299.06 118.22H224.22C223.47 118.22 222.84 117.85 222.81 117.39C222.78 116.93 223.37 116.56 224.13 116.56H299.37C300.13 116.56 300.67 116.93 300.58 117.39C300.49 117.85 299.82 118.22 299.06 118.22Z" fill="white"/>
<path opacity="0.5" d="M208.57 116.56H213.9C214.66 116.56 215.3 116.93 215.34 117.39C215.38 117.85 214.8 118.22 214.05 118.22H208.74C207.99 118.22 207.34 117.85 207.29 117.39C207.24 116.93 207.81 116.56 208.57 116.56Z" fill="white"/>
<path d="M309.89 112.12C309.79 112.59 309.09 112.98 308.32 112.98H237.79C237.03 112.98 236.4 112.6 236.39 112.12C236.39 111.64 237 111.26 237.77 111.26H308.68C309.45 111.26 309.99 111.65 309.89 112.12Z" fill="white"/>
<path d="M208.01 111.26H228.03C228.8 111.26 229.44 111.65 229.46 112.12C229.48 112.59 228.87 112.98 228.11 112.98H208.2C207.44 112.98 206.77 112.6 206.72 112.12C206.67 111.64 207.25 111.26 208.02 111.26H208.01Z" fill="white"/>
<path d="M207.42 105.77H284.35C285.13 105.77 285.71 106.17 285.65 106.66C285.58 107.15 284.9 107.55 284.12 107.55H207.61C206.83 107.55 206.16 107.15 206.1 106.66C206.05 106.17 206.63 105.77 207.42 105.77Z" fill="white"/>
<path d="M257.37 101.94C256.58 101.94 255.96 101.53 255.98 101.02C256 100.51 256.66 100.1 257.46 100.1H298.05C298.84 100.1 299.42 100.51 299.33 101.02C299.24 101.53 298.53 101.94 297.74 101.94H257.37Z" fill="white"/>
<path d="M206.82 100.1H241.95C242.74 100.1 243.39 100.51 243.39 101.02C243.39 101.53 242.75 101.94 241.95 101.94H207.01C206.22 101.94 205.53 101.53 205.48 101.02C205.42 100.51 206.02 100.1 206.82 100.1Z" fill="white"/>
<path d="M338.06 96.12H241.36C240.56 96.12 239.9 95.69 239.9 95.17C239.9 94.64 240.55 94.21 241.36 94.21H338.61C339.42 94.21 339.95 94.64 339.8 95.17C339.65 95.7 338.87 96.12 338.07 96.12H338.06Z" fill="white"/>
<path d="M339.79 90.1H254.7C253.88 90.1 253.23 89.66 253.25 89.11C253.27 88.56 253.95 88.12 254.77 88.12H340.36C341.18 88.12 341.72 88.56 341.56 89.11C341.4 89.65 340.61 90.1 339.79 90.1Z" fill="white"/>
<path opacity="0.5" d="M341.58 83.86H323.76C322.93 83.86 322.36 83.4 322.49 82.84C322.62 82.27 323.41 81.81 324.25 81.81H342.17C343.01 81.81 343.56 82.27 343.39 82.84C343.23 83.41 342.42 83.86 341.58 83.86Z" fill="white"/>
<path d="M311.3 83.86H245.87C245.04 83.86 244.36 83.4 244.37 82.84C244.37 82.27 245.06 81.81 245.9 81.81H311.72C312.56 81.81 313.15 82.27 313.03 82.84C312.91 83.41 312.15 83.86 311.31 83.86H311.3Z" fill="white"/>
<path d="M210.16 131.47H270.58C271.3 131.47 271.85 131.81 271.81 132.23C271.77 132.65 271.15 132.98 270.44 132.98H210.32C209.6 132.98 208.99 132.64 208.94 132.23C208.89 131.81 209.44 131.47 210.16 131.47Z" fill="white"/>
<path d="M210.66 136.12H303.49C304.2 136.12 304.7 136.45 304.62 136.85C304.53 137.25 303.89 137.58 303.19 137.58H210.82C210.12 137.58 209.51 137.25 209.46 136.85C209.42 136.45 209.95 136.12 210.66 136.12Z" fill="white"/>
<path d="M308.05 77.38H260.79C259.94 77.38 259.27 76.91 259.3 76.32C259.33 75.73 260.04 75.25 260.9 75.25H308.45C309.3 75.25 309.91 75.73 309.79 76.32C309.68 76.91 308.9 77.38 308.05 77.38Z" fill="white"/>
<path opacity="0.5" d="M247.39 77.38H204.4C203.55 77.38 202.81 76.91 202.74 76.32C202.67 75.73 203.31 75.25 204.17 75.25H247.42C248.27 75.25 248.96 75.73 248.95 76.32C248.94 76.91 248.24 77.38 247.39 77.38Z" fill="white"/>
<path opacity="0.5" d="M283.99 131.47C284.71 131.47 285.24 131.81 285.18 132.23C285.12 132.65 284.49 132.98 283.77 132.98H279.1C278.38 132.98 277.84 132.64 277.89 132.23C277.94 131.81 278.56 131.47 279.28 131.47H283.97H283.99Z" fill="white"/>
<path opacity="0.5" d="M226.68 127.44C226.7 127.87 226.13 128.22 225.4 128.22H219.04C218.31 128.22 217.69 127.87 217.66 127.44C217.63 127.01 218.19 126.66 218.92 126.66H225.32C226.05 126.66 226.66 127.01 226.68 127.44Z" fill="white"/>
<path opacity="0.5" d="M303.43 106.66C303.34 107.15 302.63 107.55 301.85 107.55H294.41C293.63 107.55 293.07 107.15 293.14 106.66C293.22 106.17 293.91 105.77 294.7 105.77H302.18C302.96 105.77 303.52 106.17 303.43 106.66Z" fill="white"/>
<path opacity="0.5" d="M326.64 111.26C327.41 111.26 327.93 111.65 327.8 112.12C327.67 112.59 326.95 112.98 326.19 112.98H320.26C319.5 112.98 318.97 112.6 319.08 112.12C319.19 111.64 319.91 111.26 320.68 111.26H326.64Z" fill="white"/>
<path opacity="0.5" d="M229.65 96.12C228.85 96.12 228.18 95.69 228.15 95.17C228.13 94.64 228.77 94.21 229.58 94.21H235.89C236.7 94.21 237.36 94.64 237.37 95.17C237.37 95.7 236.73 96.12 235.93 96.12H229.65Z" fill="white"/>
<path d="M143.71 65.33C144.2 66.97 143.25 68.28 141.61 68.28C139.97 68.28 138.2 66.97 137.67 65.33C137.13 63.67 138.06 62.31 139.75 62.31C141.44 62.31 143.21 63.67 143.71 65.33Z" fill="white"/>
<path d="M151.85 65.38C152.29 67.02 151.3 68.33 149.65 68.33C148 68.33 146.28 67.02 145.81 65.38C145.33 63.72 146.3 62.36 147.99 62.36C149.68 62.36 151.41 63.72 151.85 65.38Z" fill="white"/>
<path d="M160.08 65.33C160.46 66.97 159.43 68.28 157.78 68.28C156.13 68.28 154.46 66.97 154.03 65.33C153.6 63.67 154.62 62.31 156.31 62.31C158 62.31 159.69 63.67 160.07 65.33H160.08Z" fill="white"/>
<path opacity="0.1" d="M81.52 54.43L108.47 126.46L140.98 54.43H81.52Z" fill="white"/>
<path opacity="0.1" d="M126.99 146.92L180.92 54.43H237.37L158 146.92H126.99Z" fill="white"/>
<path opacity="0.1" d="M261.7 53.98L177.64 146.92H190.59L277.66 54.43L261.7 53.98Z" fill="white"/>
<path opacity="0.1" d="M278.3 146.92L370.68 54.43H383.72L288.47 146.92H278.3Z" fill="white"/>
<path d="M153.04 187.06H131.94C129.2 187.06 126.98 189.28 126.98 192.02V202.28C126.98 205.02 129.2 207.24 131.94 207.24H137.45L141.63 216.71L147.52 207.24H153.03C155.77 207.24 157.99 205.02 157.99 202.28V192.02C157.99 189.28 155.77 187.06 153.03 187.06H153.04Z" fill="white" stroke="#263238" stroke-linecap="round" stroke-linejoin="round"/>
<path d="M139.56 192.93C139.56 192.39 140 191.97 140.59 191.97C141.18 191.97 141.62 192.37 141.62 192.89C141.62 193.46 141.2 193.89 140.59 193.89C139.98 193.89 139.56 193.47 139.56 192.93ZM139.78 195.02H141.39V201.88H139.78V195.02Z" fill="#263238"/>
<path d="M145.26 194.67V195.08H147.15V196.37H145.31V201.89H143.7V196.37H142.57V195.08H143.7V194.64C143.7 193.2 144.56 192.26 146.15 192.26C146.7 192.26 147.24 192.38 147.6 192.63L147.15 193.84C146.91 193.67 146.6 193.56 146.26 193.56C145.59 193.56 145.25 193.93 145.25 194.66L145.26 194.67Z" fill="#263238"/>
<path d="M217.26 188.5H196.16C193.42 188.5 191.2 190.72 191.2 193.46V203.72C191.2 206.46 193.42 208.68 196.16 208.68H201.67L205.85 218.15L211.74 208.68H217.25C219.99 208.68 222.21 206.46 222.21 203.72V193.46C222.21 190.72 219.99 188.5 217.25 188.5H217.26Z" fill="white" stroke="#263238" stroke-linecap="round" stroke-linejoin="round"/>
<path d="M200.6 200.41H195.22C195.41 201.41 196.25 202.05 197.44 202.05C198.21 202.05 198.81 201.81 199.3 201.3L200.16 202.29C199.54 203.02 198.58 203.41 197.4 203.41C195.1 203.41 193.61 201.93 193.61 199.89C193.61 197.85 195.11 196.38 197.16 196.38C199.21 196.38 200.63 197.78 200.63 199.93C200.63 200.06 200.62 200.25 200.6 200.41ZM195.2 199.34H199.09C198.96 198.35 198.2 197.67 197.15 197.67C196.1 197.67 195.35 198.34 195.2 199.34Z" fill="#263238"/>
<path d="M202.16 193.79H203.77V203.32H202.16V193.79Z" fill="#263238"/>
<path d="M205.09 202.64L205.71 201.42C206.31 201.82 207.24 202.1 208.1 202.1C209.11 202.1 209.54 201.82 209.54 201.34C209.54 200.03 205.3 201.26 205.3 198.53C205.3 197.23 206.47 196.38 208.32 196.38C209.23 196.38 210.27 196.6 210.89 196.97L210.27 198.19C209.62 197.8 208.96 197.68 208.3 197.68C207.32 197.68 206.86 198 206.86 198.45C206.86 199.84 211.1 198.6 211.1 201.29C211.1 202.58 209.92 203.41 207.99 203.41C206.85 203.41 205.7 203.08 205.09 202.64Z" fill="#263238"/>
<path d="M218.91 200.41H213.53C213.72 201.41 214.56 202.05 215.75 202.05C216.52 202.05 217.12 201.81 217.61 201.3L218.47 202.29C217.85 203.02 216.89 203.41 215.71 203.41C213.41 203.41 211.92 201.93 211.92 199.89C211.92 197.85 213.42 196.38 215.47 196.38C217.52 196.38 218.94 197.78 218.94 199.93C218.94 200.06 218.93 200.25 218.91 200.41ZM213.51 199.34H217.4C217.27 198.35 216.51 197.67 215.46 197.67C214.41 197.67 213.66 198.34 213.51 199.34Z" fill="#263238"/>
<path d="M279.52 187.89H258.42C255.68 187.89 253.46 190.11 253.46 192.85V203.11C253.46 205.85 255.68 208.07 258.42 208.07H263.93L268.11 217.54L274 208.07H279.51C282.25 208.07 284.47 205.85 284.47 203.11V192.85C284.47 190.11 282.25 187.89 279.51 187.89H279.52Z" fill="white" stroke="#263238" stroke-linecap="round" stroke-linejoin="round"/>
<path d="M263.26 195.5V195.91H265.15V197.2H263.31V202.72H261.7V197.2H260.57V195.91H261.7V195.47C261.7 194.03 262.56 193.09 264.15 193.09C264.7 193.09 265.24 193.21 265.6 193.46L265.15 194.67C264.91 194.5 264.6 194.39 264.26 194.39C263.59 194.39 263.24 194.76 263.24 195.49L263.26 195.5Z" fill="#263238"/>
<path d="M265.56 199.29C265.56 197.23 267.1 195.78 269.21 195.78C271.32 195.78 272.87 197.23 272.87 199.29C272.87 201.35 271.34 202.81 269.21 202.81C267.08 202.81 265.56 201.35 265.56 199.29ZM271.25 199.29C271.25 197.98 270.38 197.14 269.21 197.14C268.04 197.14 267.18 197.98 267.18 199.29C267.18 200.6 268.05 201.44 269.21 201.44C270.37 201.44 271.25 200.61 271.25 199.29Z" fill="#263238"/>
<path d="M278.37 195.78V197.31C278.23 197.28 278.11 197.27 278 197.27C276.78 197.27 276.01 197.99 276.01 199.39V202.72H274.4V195.86H275.93V196.86C276.39 196.14 277.23 195.78 278.37 195.78Z" fill="#263238"/>
<path d="M340.88 187.06H319.78C317.04 187.06 314.82 189.28 314.82 192.02V202.28C314.82 205.02 317.04 207.24 319.78 207.24H325.29L329.47 216.71L335.36 207.24H340.87C343.61 207.24 345.83 205.02 345.83 202.28V192.02C345.83 189.28 343.61 187.06 340.87 187.06H340.88Z" fill="white" stroke="#263238" stroke-linecap="round" stroke-linejoin="round"/>
<path d="M327.59 194.69H333.51V195.97H327.59V194.69ZM327.59 197.8H333.51V199.08H327.59V197.8Z" fill="#263238"/>
<path d="M185.2 175.18H164.1C161.36 175.18 159.14 177.4 159.14 180.14V190.4C159.14 193.14 161.36 195.36 164.1 195.36H169.61L173.79 204.83L179.68 195.36H185.19C187.93 195.36 190.15 193.14 190.15 190.4V180.14C190.15 177.4 187.93 175.18 185.19 175.18H185.2Z" fill="white" stroke="#263238" stroke-linecap="round" stroke-linejoin="round"/>
<path d="M169.69 179.45H172.76V180.73H171.3V190.19H172.76V191.48H169.69V179.45Z" fill="#263238"/>
<path d="M176.74 191.47V190.18H178.19V180.72H176.74V179.44H179.8V191.47H176.74Z" fill="#263238"/>
<path d="M247.92 174.13H226.82C224.08 174.13 221.86 176.35 221.86 179.09V189.35C221.86 192.09 224.08 194.31 226.82 194.31H232.33L236.51 203.78L242.4 194.31H247.91C250.65 194.31 252.87 192.09 252.87 189.35V179.09C252.87 176.35 250.65 174.13 247.91 174.13H247.92Z" fill="white" stroke="#263238" stroke-linecap="round" stroke-linejoin="round"/>
<path d="M233.08 184.37C233.59 184.54 233.84 184.88 233.84 185.68V188.12C233.84 188.74 234.15 189.1 234.79 189.1H235.06V190.39H234.42C232.97 190.39 232.24 189.66 232.24 188.3V185.65C232.24 185.23 232.02 185.03 231.66 185.03H231.24V183.72H231.66C232.02 183.72 232.24 183.53 232.24 183.1V180.45C232.24 179.09 232.97 178.36 234.42 178.36H235.06V179.64H234.79C234.15 179.64 233.84 180 233.84 180.62V183.06C233.84 183.86 233.6 184.2 233.08 184.37Z" fill="#263238"/>
<path d="M242.88 183.71V185.02H242.44C242.09 185.02 241.87 185.21 241.87 185.64V188.29C241.87 189.65 241.12 190.38 239.67 190.38H239.03V189.09H239.3C239.96 189.09 240.26 188.73 240.26 188.11V185.67C240.26 184.87 240.49 184.53 241.01 184.36C240.5 184.19 240.26 183.85 240.26 183.05V180.61C240.26 179.99 239.95 179.63 239.3 179.63H239.03V178.35H239.67C241.12 178.35 241.87 179.08 241.87 180.44V183.09C241.87 183.51 242.09 183.71 242.44 183.71H242.88Z" fill="#263238"/>
<path d="M309.97 172.05H288.87C286.13 172.05 283.91 174.27 283.91 177.01V187.27C283.91 190.01 286.13 192.23 288.87 192.23H294.38L298.56 201.7L304.45 192.23H309.96C312.7 192.23 314.92 190.01 314.92 187.27V177.01C314.92 174.27 312.7 172.05 309.96 172.05H309.97Z" fill="white" stroke="#263238" stroke-linecap="round" stroke-linejoin="round"/>
<path d="M298.59 179.65C298.59 179.01 299.07 178.58 299.64 178.58C300.21 178.58 300.69 179 300.69 179.65C300.69 180.3 300.21 180.72 299.64 180.72C299.07 180.72 298.59 180.27 298.59 179.65ZM300.7 184.54C300.7 184.82 300.64 185.05 300.4 185.65L299.74 187.46H298.7L299.21 185.49C298.85 185.34 298.61 185 298.61 184.54C298.61 183.9 299.06 183.47 299.65 183.47C300.24 183.47 300.69 183.91 300.69 184.54H300.7Z" fill="#263238"/>
<path d="M227.5 351.49H248.6C251.34 351.49 253.56 349.27 253.56 346.53V336.27C253.56 333.53 251.34 331.31 248.6 331.31H243.09L241.48 321.84L233.02 331.31H227.51C224.77 331.31 222.55 333.53 222.55 336.27V346.53C222.55 349.27 224.77 351.49 227.51 351.49H227.5Z" fill="white" stroke="#263238" stroke-linecap="round" stroke-linejoin="round"/>
<path d="M234.91 339.29L230.48 340.95L234.91 342.61V343.95L228.99 341.65V340.26L234.91 337.96V339.3V339.29Z" fill="#263238"/>
<path d="M239.59 334.63H241.03L236.79 346.73H235.35L239.59 334.63Z" fill="#263238"/>
<path d="M247.25 340.26V341.65L241.33 343.95V342.61L245.76 340.95L241.33 339.29V337.95L247.25 340.25V340.26Z" fill="#263238"/>
<path d="M93.3802 276.75H114.48C117.22 276.75 119.44 274.53 119.44 271.79V261.53C119.44 258.79 117.22 256.57 114.48 256.57H108.97L110.17 247.1L98.9002 256.57H93.3902C90.6502 256.57 88.4302 258.79 88.4302 261.53V271.79C88.4302 274.53 90.6502 276.75 93.3902 276.75H93.3802Z" fill="white" stroke="#263238" stroke-linecap="round" stroke-linejoin="round"/>
<path d="M99.6299 270.24C99.6299 269.69 100.07 269.25 100.67 269.25C101.27 269.25 101.68 269.69 101.68 270.24C101.68 270.79 101.26 271.24 100.67 271.24C100.08 271.24 99.6299 270.79 99.6299 270.24ZM99.7199 262.16H101.62L101.3 268.17H100.03L99.7199 262.16Z" fill="#263238"/>
<path d="M103.28 264.46H109.2V265.74H103.28V264.46ZM103.28 267.57H109.2V268.86H103.28V267.57Z" fill="#263238"/>
<path d="M431.17 265.11C431.17 269.23 430.83 273.22 430.2 276.98C427.3 294.28 418.2 306.91 407.44 306.91C406.48 306.91 405.51 306.8 404.58 306.61C392.83 304.12 383.71 286.49 383.71 265.11C383.71 242.03 394.34 233.86 407.43 233.86C420.52 233.86 431.16 242.02 431.16 265.11H431.17Z" fill="white"/>
<mask id="mask2_17_1198" style="mask-type:luminance" maskUnits="userSpaceOnUse" x="383" y="233" width="49" height="74">
<path d="M431.17 265.11C431.17 269.23 430.83 273.22 430.2 276.98C427.3 294.28 418.2 306.91 407.44 306.91C406.48 306.91 405.51 306.8 404.58 306.61C392.83 304.12 383.71 286.49 383.71 265.11C383.71 242.03 394.34 233.86 407.43 233.86C420.52 233.86 431.16 242.02 431.16 265.11H431.17Z" fill="white"/>
</mask>
<g mask="url(#mask2_17_1198)">
<path d="M422.57 265.38C423.45 277.76 421.32 290.2 417.76 302.09C426.7 294.75 430.81 283.22 434.53 272.27C437.23 264.32 439.96 256.12 439.48 247.74C438.99 239.36 434.5 230.64 426.63 227.7C422.79 226.26 418.31 226.37 414.51 227.9C407.92 230.54 411.53 232.69 414.29 237.43C419.24 245.9 421.88 255.65 422.57 265.4V265.38Z" fill="#EA8901"/>
<path opacity="0.5" d="M422.57 265.38C423.45 277.76 421.32 290.2 417.76 302.09C426.7 294.75 430.81 283.22 434.53 272.27C437.23 264.32 439.96 256.12 439.48 247.74C438.99 239.36 434.5 230.64 426.63 227.7C422.79 226.26 418.31 226.37 414.51 227.9C407.92 230.54 411.53 232.69 414.29 237.43C419.24 245.9 421.88 255.65 422.57 265.4V265.38Z" fill="white"/>
</g>
<path d="M431.17 265.11C431.17 269.23 430.83 273.22 430.2 276.98C427.3 294.28 418.2 306.91 407.44 306.91C406.48 306.91 405.51 306.8 404.58 306.61C392.83 304.12 383.71 286.49 383.71 265.11C383.71 242.03 394.34 233.86 407.43 233.86C420.52 233.86 431.16 242.02 431.16 265.11H431.17Z" stroke="#263238" stroke-miterlimit="10"/>
<path d="M420.19 286.35C418.6 291.68 415.98 296.69 412.41 300.95L420.19 286.35Z" fill="white"/>
<path d="M420.19 286.35C418.6 291.68 415.98 296.69 412.41 300.95" stroke="#263238" stroke-miterlimit="10"/>
<path d="M420.94 283.44C420.81 284 420.68 284.57 420.53 285.13" stroke="#263238" stroke-miterlimit="10"/>
<path d="M420.88 265.06C422.14 270.38 422.27 275.95 421.35 281.34L420.88 265.06Z" fill="white"/>
<path d="M420.88 265.06C422.14 270.38 422.27 275.95 421.35 281.34" stroke="#263238" stroke-miterlimit="10"/>
<path d="M383.71 265.11C383.71 265.11 410.68 254.45 431.16 265.11" stroke="#263238" stroke-miterlimit="10"/>
<path d="M407.44 233.87C407.44 233.87 410.14 243.87 410.45 260.13L407.44 233.87Z" fill="white"/>
<path d="M407.44 233.87C407.44 233.87 410.14 243.87 410.45 260.13" stroke="#263238" stroke-miterlimit="10"/>
<path d="M411.2 246.03C411.55 249.14 411.01 251.79 410 251.95C408.99 252.11 407.89 249.72 407.54 246.61C407.19 243.5 407.73 240.85 408.74 240.69C409.75 240.53 410.85 242.92 411.2 246.03Z" fill="#BFBFBF" stroke="#263238" stroke-linecap="round" stroke-linejoin="round"/>
<path d="M396.8 314.9H365.18C361.24 314.9 358 311.98 357.49 308.19C357.42 307.85 357.4 307.49 357.4 307.12V232.53C357.4 232.17 357.42 231.81 357.49 231.45C358 227.66 361.24 224.75 365.18 224.75H454.9C456.26 224.75 457.53 225.1 458.63 225.71" stroke="#263238" stroke-miterlimit="10"/>
</g>
<defs>
<clipPath id="clip0_17_1198">
<rect width="462.86" height="395.7" fill="white"/>
</clipPath>
</defs>
</svg>
