<svg width="136" height="50" viewBox="0 0 136 50" fill="none" xmlns="http://www.w3.org/2000/svg">
<circle cx="23.0188" cy="26.6192" r="18.3891" stroke="url(#paint0_linear_17_618)" stroke-width="1.02876"/>
<path d="M33.2543 18.5633C33.2543 18.5633 31.8877 22.0983 29.6397 21.1707C25.2632 19.3619 30.7247 14.4776 30.7247 14.4776C30.7247 14.4776 27.2518 12.5606 24.8637 16.8656C24.8637 16.8656 20.9198 8.18248 25.1898 5.14381C25.1898 5.14381 13.0335 10.642 25.263 27.4294C37.4906 44.2169 18.7499 43.4928 17.5199 43.9273C17.5199 43.9273 42.6692 50.7473 33.2543 18.5633Z" fill="url(#paint1_linear_17_618)"/>
<path d="M22.7301 25.7415C18.002 19.7118 18.3885 13.8271 18.3885 13.8271C18.3885 13.8271 17.5676 17.4925 18.0513 20.6281C18.5349 23.7638 20.0781 32.8321 15.7842 32.3499C11.4903 31.8678 15.6379 24.8377 15.6379 24.8377C15.6379 24.8377 10.5245 27.1891 10.8141 34.6648C11.0511 40.7882 16.6878 43.4196 16.6878 43.4196C25.3583 42.1898 27.4565 31.7707 22.7301 25.7415Z" fill="url(#paint2_linear_17_618)"/>
<path d="M20.5044 42.9138C34.2532 40.1997 25.6589 29.6358 25.6589 29.6358C28.1678 38.9457 20.5044 42.9138 20.5044 42.9138Z" fill="url(#paint3_linear_17_618)"/>
<path d="M55.0658 21.595V24.6402H59.329V26.4508H55.0658V31.1419H52.8931V19.6857H60.4154V21.595H55.0658Z" fill="url(#paint4_linear_17_618)"/>
<path d="M62.7627 19.6857H64.9355V29.2326H69.7583V31.1419H62.7627V19.6857Z" fill="url(#paint5_linear_17_618)"/>
<path d="M79.109 28.5412H74.2203L73.2656 31.1419H71.0929L75.4384 19.6857H77.9732L82.3187 31.1419H80.0637L79.109 28.5412ZM78.4341 26.6977L76.6729 21.8255L74.8952 26.6977H78.4341Z" fill="url(#paint6_linear_17_618)"/>
<path d="M91.0465 31.1419L88.7091 26.78H86.6681V31.1419H84.4953V19.6857H88.6268C90.1083 19.6857 91.2166 19.9819 91.9518 20.5745C92.687 21.1671 93.0546 22.0285 93.0546 23.1588C93.0546 23.9598 92.8736 24.6402 92.5114 25.1998C92.1493 25.7595 91.6116 26.1765 90.8983 26.4508L93.4332 31.1419H91.0465ZM86.6681 24.8706H88.6433C89.3675 24.8706 89.8998 24.7444 90.2399 24.492C90.5911 24.2396 90.7667 23.8117 90.7667 23.2081C90.7667 22.6265 90.5966 22.215 90.2564 21.9736C89.9162 21.7322 89.373 21.6115 88.6268 21.6115H86.6681V24.8706Z" fill="url(#paint7_linear_17_618)"/>
<path d="M98.1934 21.595V24.4591H103.131V26.2533H98.1934V29.2326H103.494V31.1419H96.0207V19.6857H103.494V21.595H98.1934Z" fill="url(#paint8_linear_17_618)"/>
<path d="M109.973 26.4014L108.722 27.8499V31.1419H106.549V19.6857H108.722V24.8871L113.117 19.6857H115.784L111.455 24.6895L116.047 31.1419H113.364L109.973 26.4014Z" fill="url(#paint9_linear_17_618)"/>
<path d="M118.684 21.2658C118.311 21.2658 117.992 21.1396 117.729 20.8872C117.466 20.6349 117.334 20.3057 117.334 19.8996C117.334 19.4936 117.466 19.1644 117.729 18.912C117.992 18.6596 118.311 18.5334 118.684 18.5334C119.057 18.5334 119.375 18.6596 119.638 18.912C119.902 19.1644 120.034 19.4936 120.034 19.8996C120.034 20.3057 119.902 20.6349 119.638 20.8872C119.375 21.1396 119.057 21.2658 118.684 21.2658ZM119.77 22.5497V31.1419H117.597V22.5662L119.77 22.5497Z" fill="url(#paint10_linear_17_618)"/>
<path d="M125.174 21.6773H121.914V19.6857H130.605V21.6773H127.346V31.1419H125.174V21.6773Z" fill="url(#paint11_linear_17_618)"/>
<path d="M55.0658 21.595V24.6402H59.329V26.4508H55.0658V31.1419H52.8931V19.6857H60.4154V21.595H55.0658Z" fill="black"/>
<path d="M62.7627 19.6857H64.9355V29.2326H69.7583V31.1419H62.7627V19.6857Z" fill="black"/>
<path d="M79.109 28.5412H74.2203L73.2656 31.1419H71.0929L75.4384 19.6857H77.9732L82.3187 31.1419H80.0637L79.109 28.5412ZM78.4341 26.6977L76.6729 21.8255L74.8952 26.6977H78.4341Z" fill="black"/>
<path d="M91.0465 31.1419L88.7091 26.78H86.6681V31.1419H84.4953V19.6857H88.6268C90.1083 19.6857 91.2166 19.9819 91.9518 20.5745C92.687 21.1671 93.0546 22.0285 93.0546 23.1588C93.0546 23.9598 92.8736 24.6402 92.5114 25.1998C92.1493 25.7595 91.6116 26.1765 90.8983 26.4508L93.4332 31.1419H91.0465ZM86.6681 24.8706H88.6433C89.3675 24.8706 89.8998 24.7444 90.2399 24.492C90.5911 24.2396 90.7667 23.8117 90.7667 23.2081C90.7667 22.6265 90.5966 22.215 90.2564 21.9736C89.9162 21.7322 89.373 21.6115 88.6268 21.6115H86.6681V24.8706Z" fill="black"/>
<path d="M98.1934 21.595V24.4591H103.131V26.2533H98.1934V29.2326H103.494V31.1419H96.0207V19.6857H103.494V21.595H98.1934Z" fill="black"/>
<path d="M109.973 26.4014L108.722 27.8499V31.1419H106.549V19.6857H108.722V24.8871L113.117 19.6857H115.784L111.455 24.6895L116.047 31.1419H113.364L109.973 26.4014Z" fill="black"/>
<path d="M125.174 21.6773H121.914V19.6857H130.605V21.6773H127.346V31.1419H125.174V21.6773Z" fill="black"/>
<path fill-rule="evenodd" clip-rule="evenodd" d="M119.77 31.1419V22.5497L117.597 22.5662V31.1419H119.77Z" fill="black"/>
<defs>
<linearGradient id="paint0_linear_17_618" x1="23.0188" y1="8.74447" x2="23.0188" y2="44.4939" gradientUnits="userSpaceOnUse">
<stop stop-color="#FFC500"/>
<stop offset="1" stop-color="#C21500"/>
</linearGradient>
<linearGradient id="paint1_linear_17_618" x1="17.232" y1="44.4939" x2="31.056" y2="11.0592" gradientUnits="userSpaceOnUse">
<stop stop-color="#C21500"/>
<stop offset="1" stop-color="#FFC500"/>
</linearGradient>
<linearGradient id="paint2_linear_17_618" x1="17.232" y1="44.4939" x2="31.056" y2="11.0592" gradientUnits="userSpaceOnUse">
<stop stop-color="#C21500"/>
<stop offset="1" stop-color="#FFC500"/>
</linearGradient>
<linearGradient id="paint3_linear_17_618" x1="17.232" y1="44.4939" x2="31.056" y2="11.0592" gradientUnits="userSpaceOnUse">
<stop stop-color="#C21500"/>
<stop offset="1" stop-color="#FFC500"/>
</linearGradient>
<linearGradient id="paint4_linear_17_618" x1="118.774" y1="21.2401" x2="118.774" y2="18.5396" gradientUnits="userSpaceOnUse">
<stop stop-color="#E65C00"/>
<stop offset="1" stop-color="#F9D423"/>
</linearGradient>
<linearGradient id="paint5_linear_17_618" x1="118.774" y1="21.2401" x2="118.774" y2="18.5396" gradientUnits="userSpaceOnUse">
<stop stop-color="#E65C00"/>
<stop offset="1" stop-color="#F9D423"/>
</linearGradient>
<linearGradient id="paint6_linear_17_618" x1="118.774" y1="21.2401" x2="118.774" y2="18.5396" gradientUnits="userSpaceOnUse">
<stop stop-color="#E65C00"/>
<stop offset="1" stop-color="#F9D423"/>
</linearGradient>
<linearGradient id="paint7_linear_17_618" x1="118.774" y1="21.2401" x2="118.774" y2="18.5396" gradientUnits="userSpaceOnUse">
<stop stop-color="#E65C00"/>
<stop offset="1" stop-color="#F9D423"/>
</linearGradient>
<linearGradient id="paint8_linear_17_618" x1="118.774" y1="21.2401" x2="118.774" y2="18.5396" gradientUnits="userSpaceOnUse">
<stop stop-color="#E65C00"/>
<stop offset="1" stop-color="#F9D423"/>
</linearGradient>
<linearGradient id="paint9_linear_17_618" x1="118.774" y1="21.2401" x2="118.774" y2="18.5396" gradientUnits="userSpaceOnUse">
<stop stop-color="#E65C00"/>
<stop offset="1" stop-color="#F9D423"/>
</linearGradient>
<linearGradient id="paint10_linear_17_618" x1="118.774" y1="21.2401" x2="118.774" y2="18.5396" gradientUnits="userSpaceOnUse">
<stop stop-color="#E65C00"/>
<stop offset="1" stop-color="#F9D423"/>
</linearGradient>
<linearGradient id="paint11_linear_17_618" x1="118.774" y1="21.2401" x2="118.774" y2="18.5396" gradientUnits="userSpaceOnUse">
<stop stop-color="#E65C00"/>
<stop offset="1" stop-color="#F9D423"/>
</linearGradient>
</defs>
</svg>
