<svg width="88" height="25" viewBox="0 0 88 25" fill="none" xmlns="http://www.w3.org/2000/svg">
<path fill-rule="evenodd" clip-rule="evenodd" d="M12.7441 0.700195C5.9761 0.700195 0.489258 6.20847 0.489258 13.0051C0.489258 18.4403 4.00042 23.052 8.87091 24.6789C9.48368 24.7922 9.70784 24.4123 9.70784 24.0865C9.70784 23.7939 9.69712 23.0203 9.69048 21.9939C6.28144 22.7374 5.56197 20.3445 5.56197 20.3445C5.00537 18.9229 4.20212 18.5445 4.20212 18.5445C3.08893 17.7811 4.28637 17.7964 4.28637 17.7964C5.51548 17.8832 6.16247 19.0644 6.16247 19.0644C7.25677 20.9451 9.03126 20.4022 9.72981 20.0867C9.84062 19.2916 10.1577 18.7493 10.508 18.4419C7.78631 18.1309 4.9257 17.0759 4.9257 12.3612C4.9257 11.0182 5.40265 9.9198 6.18699 9.05938C6.06087 8.74789 5.6406 7.49732 6.30699 5.80301C6.30699 5.80301 7.33592 5.47265 9.6772 7.06431C10.6551 6.79163 11.7029 6.65527 12.7451 6.65017C13.7863 6.65527 14.8347 6.79163 15.8141 7.06431C18.1528 5.47265 19.1802 5.80301 19.1802 5.80301C19.8492 7.49732 19.4284 8.74789 19.3023 9.05938C20.0876 9.9198 20.562 11.0177 20.562 12.3612C20.562 17.0877 17.6968 18.1278 14.9669 18.4327C15.4061 18.8126 15.7988 19.5627 15.7988 20.7112C15.7988 22.3554 15.7834 23.6826 15.7834 24.0865C15.7834 24.4153 16.0041 24.7983 16.626 24.6773C21.4919 23.0474 25 18.4388 25 13.0051C25 6.20847 19.5127 0.700195 12.7441 0.700195Z" fill="#EA8901"/>
<path d="M42.1534 10.74C42.0436 10.3953 41.8958 10.0866 41.7102 9.81383C41.5284 9.53732 41.3106 9.30247 41.0568 9.10929C40.803 8.91232 40.5133 8.76269 40.1875 8.66042C39.8655 8.55815 39.5114 8.50701 39.125 8.50701C38.4697 8.50701 37.8788 8.67557 37.3523 9.0127C36.8258 9.34982 36.4091 9.84413 36.1023 10.4956C35.7992 11.1434 35.6477 11.9369 35.6477 12.8763C35.6477 13.8195 35.8011 14.6169 36.108 15.2684C36.4148 15.9199 36.8352 16.4142 37.3693 16.7513C37.9034 17.0885 38.5114 17.257 39.1932 17.257C39.8258 17.257 40.3769 17.1282 40.8466 16.8706C41.3201 16.6131 41.6856 16.2494 41.9432 15.7797C42.2045 15.3063 42.3352 14.7494 42.3352 14.1093L42.7898 14.1945H39.4602V12.7456H44.0341V14.0695C44.0341 15.0468 43.8258 15.8953 43.4091 16.615C42.9962 17.3309 42.4242 17.8839 41.6932 18.2741C40.9659 18.6642 40.1326 18.8593 39.1932 18.8593C38.1402 18.8593 37.2159 18.6169 36.4205 18.132C35.6288 17.6472 35.0114 16.9597 34.5682 16.0695C34.125 15.1756 33.9034 14.115 33.9034 12.8877C33.9034 11.9597 34.0322 11.1263 34.2898 10.3877C34.5473 9.64906 34.9091 9.02216 35.375 8.50701C35.8447 7.98807 36.3958 7.59224 37.0284 7.31951C37.6648 7.043 38.3598 6.90474 39.1136 6.90474C39.7424 6.90474 40.3277 6.99754 40.8693 7.18315C41.4148 7.36876 41.8996 7.63201 42.3239 7.97292C42.7519 8.31383 43.1061 8.71913 43.3864 9.18883C43.6667 9.65474 43.8561 10.1718 43.9545 10.74H42.1534ZM46.6733 18.7002V9.97292H48.3722V18.7002H46.6733ZM47.5312 8.62633C47.2358 8.62633 46.982 8.52785 46.7699 8.33088C46.5616 8.13012 46.4574 7.89148 46.4574 7.61497C46.4574 7.33466 46.5616 7.09603 46.7699 6.89906C46.982 6.6983 47.2358 6.59792 47.5312 6.59792C47.8267 6.59792 48.0786 6.6983 48.2869 6.89906C48.4991 7.09603 48.6051 7.33466 48.6051 7.61497C48.6051 7.89148 48.4991 8.13012 48.2869 8.33088C48.0786 8.52785 47.8267 8.62633 47.5312 8.62633ZM54.7315 9.97292V11.3366H49.9645V9.97292H54.7315ZM51.2429 7.88201H52.9418V16.1377C52.9418 16.4672 52.991 16.7153 53.0895 16.882C53.188 17.0449 53.3149 17.1566 53.4702 17.2172C53.6293 17.2741 53.8016 17.3025 53.9872 17.3025C54.1236 17.3025 54.2429 17.293 54.3452 17.2741C54.4474 17.2551 54.527 17.24 54.5838 17.2286L54.8906 18.632C54.7921 18.6699 54.652 18.7078 54.4702 18.7456C54.2884 18.7873 54.0611 18.81 53.7884 18.8138C53.3414 18.8214 52.9247 18.7419 52.5384 18.5752C52.152 18.4085 51.8395 18.151 51.6009 17.8025C51.3622 17.454 51.2429 17.0165 51.2429 16.49V7.88201ZM56.9347 18.7002V7.06383H58.6903V12.1206H64.4915V7.06383H66.2528V18.7002H64.4915V13.6263H58.6903V18.7002H56.9347ZM74.2017 15.0809V9.97292H75.9062V18.7002H74.2358V17.1888H74.1449C73.9441 17.6547 73.6222 18.043 73.179 18.3536C72.7396 18.6604 72.1922 18.8138 71.5369 18.8138C70.9763 18.8138 70.4801 18.6907 70.0483 18.4445C69.6203 18.1945 69.2831 17.8252 69.0369 17.3366C68.7945 16.8479 68.6733 16.2438 68.6733 15.5241V9.97292H70.3722V15.3195C70.3722 15.9142 70.5369 16.3877 70.8665 16.74C71.196 17.0922 71.6241 17.2684 72.1506 17.2684C72.4688 17.2684 72.785 17.1888 73.0994 17.0297C73.4176 16.8706 73.6809 16.6301 73.8892 16.3081C74.1013 15.9862 74.2055 15.5771 74.2017 15.0809ZM78.3253 18.7002V7.06383H80.0241V11.3877H80.1264C80.2249 11.2059 80.367 10.9956 80.5526 10.757C80.7382 10.5184 80.9957 10.31 81.3253 10.132C81.6548 9.9502 82.0904 9.85929 82.6321 9.85929C83.3366 9.85929 83.9654 10.0373 84.5185 10.3934C85.0715 10.7494 85.5052 11.2627 85.8196 11.9331C86.1378 12.6036 86.2969 13.4104 86.2969 14.3536C86.2969 15.2968 86.1397 16.1055 85.8253 16.7797C85.5109 17.4502 85.0791 17.9672 84.5298 18.3309C83.9806 18.6907 83.3537 18.8706 82.6491 18.8706C82.1188 18.8706 81.6851 18.7816 81.348 18.6036C81.0147 18.4256 80.7533 18.2172 80.5639 17.9786C80.3745 17.74 80.2287 17.5278 80.1264 17.3422H79.9844V18.7002H78.3253ZM79.9901 14.3366C79.9901 14.9502 80.0791 15.4881 80.2571 15.9502C80.4351 16.4123 80.6927 16.7741 81.0298 17.0354C81.367 17.293 81.7798 17.4218 82.2685 17.4218C82.776 17.4218 83.2003 17.2873 83.5412 17.0184C83.8821 16.7456 84.1397 16.3763 84.3139 15.9104C84.492 15.4445 84.581 14.9199 84.581 14.3366C84.581 13.7608 84.4938 13.2438 84.3196 12.7854C84.1491 12.3271 83.8916 11.9653 83.5469 11.7002C83.206 11.435 82.7798 11.3025 82.2685 11.3025C81.776 11.3025 81.3594 11.4294 81.0185 11.6831C80.6813 11.9369 80.4257 12.2911 80.2514 12.7456C80.0772 13.2002 79.9901 13.7305 79.9901 14.3366Z" fill="#EA8901"/>
</svg>
