<svg width="401" height="268" viewBox="0 0 401 268" fill="none" xmlns="http://www.w3.org/2000/svg">
<path d="M371.7 148.755C371.7 148.755 377.033 53.8213 296.5 27.6879C215.967 1.55461 175.433 20.7546 149.833 45.2879C124.233 69.8213 115.7 85.8213 86.3667 89.0213C57.0333 92.2213 29.8333 97.5546 15.9667 133.288C2.09998 169.021 19.7 197.288 46.3667 214.888C73.0333 232.488 103.967 213.821 128.5 225.021C153.033 236.221 168.5 254.888 218.633 257.021C268.767 259.155 270.367 244.755 295.967 222.355C321.567 199.955 366.9 223.421 371.7 148.755Z" fill="#EA8901"/>
<path opacity="0.7" d="M371.7 148.755C371.7 148.755 377.033 53.8213 296.5 27.6879C215.967 1.55461 175.433 20.7546 149.833 45.2879C124.233 69.8213 115.7 85.8213 86.3667 89.0213C57.0333 92.2213 29.8333 97.5546 15.9667 133.288C2.09998 169.021 19.7 197.288 46.3667 214.888C73.0333 232.488 103.967 213.821 128.5 225.021C153.033 236.221 168.5 254.888 218.633 257.021C268.767 259.155 270.367 244.755 295.967 222.355C321.567 199.955 366.9 223.421 371.7 148.755Z" fill="white"/>
<path d="M320.548 156.739C322.537 157.603 327.391 157.496 327.396 157.496C327.401 157.496 326.329 154.296 326.26 154.125C325.193 151.896 321.823 148.216 319.081 148.584C318.628 148.659 318.195 148.828 317.811 149.081C317.427 149.334 317.1 149.665 316.852 150.052C316.604 150.439 316.44 150.874 316.372 151.329C316.303 151.783 316.33 152.247 316.452 152.691C316.911 154.589 318.857 155.997 320.548 156.739Z" fill="#263238"/>
<path d="M322.228 170.803C324.287 171.107 328.628 169.848 328.964 169.736C329.677 172.217 330.556 174.647 331.593 177.011C332.185 178.387 332.831 179.763 333.492 181.128C333.097 180.547 332.74 180.035 332.681 179.965C331.081 178.099 326.847 175.437 324.297 176.52C323.879 176.711 323.507 176.988 323.203 177.333C322.9 177.678 322.672 178.083 322.535 178.522C322.398 178.96 322.355 179.423 322.409 179.879C322.463 180.336 322.612 180.776 322.847 181.171C323.785 182.883 326.047 183.731 327.865 183.997C329.684 184.264 333.433 183.267 334.415 182.989C334.676 183.523 334.948 184.056 335.193 184.557C336.447 187.059 337.711 189.544 338.873 192.024C339.284 192.899 339.657 193.773 340.031 194.648C339.679 194.115 339.38 193.704 339.327 193.64C337.727 191.773 333.487 189.112 330.943 190.195C330.525 190.386 330.152 190.663 329.848 191.008C329.545 191.353 329.317 191.758 329.18 192.196C329.044 192.635 329.001 193.098 329.054 193.554C329.108 194.01 329.257 194.45 329.492 194.845C330.431 196.557 332.692 197.405 334.511 197.672C336.329 197.939 339.716 197.037 340.911 196.712C341.268 197.619 341.625 198.531 341.935 199.421C342.127 200.04 342.361 200.621 342.521 201.245C342.681 201.869 342.862 202.483 343.054 203.091C343.337 204.269 343.641 205.491 343.886 206.648C344.062 207.453 344.217 208.248 344.377 209C343.977 208.125 343.161 206.435 343.081 206.301C341.764 204.205 337.993 200.968 335.311 201.624C334.868 201.75 334.458 201.967 334.105 202.262C333.753 202.557 333.467 202.923 333.266 203.337C333.064 203.75 332.952 204.201 332.937 204.66C332.922 205.119 333.004 205.577 333.177 206.003C333.844 207.832 335.945 209.011 337.705 209.549C339.652 210.147 343.951 209.603 344.489 209.549C344.745 210.835 344.985 212.083 345.193 213.283C345.652 215.896 345.999 218.243 346.26 220.216H348.073C347.759 218.163 347.343 215.715 346.799 212.968C346.543 211.661 346.238 210.275 345.918 208.851C347.212 208.329 348.474 207.734 349.7 207.069C351.119 208.6 354.745 210.397 355.215 210.627C354.724 211.837 354.233 213.016 353.748 214.12C352.745 216.429 351.79 218.477 350.953 220.216H352.911C353.636 218.616 354.431 216.781 355.257 214.755C355.764 213.528 356.281 212.2 356.799 210.835C357.332 210.941 361.599 211.805 363.561 211.368C365.364 210.963 367.545 209.944 368.361 208.168C368.564 207.756 368.679 207.305 368.697 206.846C368.715 206.386 368.636 205.928 368.465 205.501C368.295 205.074 368.037 204.688 367.707 204.367C367.378 204.047 366.985 203.799 366.553 203.64C363.929 202.76 359.929 205.736 358.463 207.725C358.372 207.843 357.577 209.219 357.086 210.099C357.294 209.565 357.508 209 357.716 208.419C358.132 207.277 358.516 206.131 358.932 204.893L359.465 203.059C359.663 202.451 359.791 201.784 359.961 201.144C360.313 199.645 360.601 198.109 360.863 196.557C361.86 196.925 365.428 198.157 367.263 198.035C369.097 197.912 371.412 197.229 372.479 195.592C372.742 195.216 372.924 194.788 373.012 194.337C373.099 193.886 373.091 193.421 372.988 192.974C372.884 192.526 372.687 192.105 372.41 191.738C372.133 191.372 371.782 191.067 371.38 190.845C368.921 189.576 364.511 191.912 362.761 193.656C362.649 193.768 361.535 195.16 360.937 195.933C361.081 195 361.236 194.067 361.353 193.117C361.694 190.376 361.951 187.587 362.222 184.808C362.302 183.955 362.398 183.107 362.489 182.259C362.841 182.392 367.055 183.96 369.124 183.816C370.964 183.688 373.273 183.011 374.34 181.373C374.603 180.997 374.785 180.569 374.872 180.117C374.959 179.666 374.951 179.201 374.847 178.754C374.742 178.306 374.545 177.885 374.268 177.519C373.99 177.152 373.639 176.848 373.236 176.627C370.777 175.357 366.372 177.693 364.622 179.437C364.489 179.571 362.884 181.571 362.489 182.104C362.687 180.237 362.9 178.371 363.183 176.552C363.558 174.084 364.093 171.644 364.783 169.245C364.948 169.309 369.337 170.963 371.46 170.813C373.3 170.685 375.609 170.008 376.676 168.371C376.939 167.994 377.119 167.566 377.206 167.115C377.293 166.663 377.284 166.199 377.18 165.752C377.076 165.304 376.879 164.883 376.602 164.517C376.325 164.15 375.974 163.846 375.572 163.624C373.113 162.355 368.708 164.691 366.953 166.435C366.82 166.573 365.092 168.733 364.82 169.144C364.862 169.005 364.889 168.856 364.932 168.723C365.689 166.331 366.656 164.01 367.822 161.789C368.452 160.557 369.124 159.416 369.801 158.323C370.585 158.712 374.196 160.456 376.121 160.541C378.046 160.627 380.335 160.2 381.572 158.691C381.875 158.345 382.103 157.94 382.239 157.501C382.376 157.062 382.419 156.599 382.365 156.142C382.311 155.685 382.162 155.245 381.927 154.85C381.692 154.455 381.377 154.113 381.001 153.848C378.697 152.317 374.068 154.157 372.127 155.699C372.02 155.784 371.06 156.765 370.35 157.469C370.66 156.979 370.974 156.467 371.284 156.003C372.441 154.259 373.609 152.733 374.654 151.395C375.252 150.637 375.812 149.96 376.34 149.336C377.311 149.336 381.225 149.203 382.937 148.397C384.649 147.592 386.516 146.152 386.921 144.237C387.032 143.791 387.047 143.327 386.966 142.875C386.885 142.423 386.71 141.993 386.452 141.613C386.194 141.233 385.859 140.912 385.468 140.67C385.077 140.429 384.64 140.272 384.185 140.211C381.433 139.912 378.164 143.683 377.161 145.939C377.076 146.136 376.068 149.341 376.095 149.341H376.153C375.62 149.928 375.087 150.568 374.495 151.283C373.428 152.605 372.212 154.104 371.012 155.832C369.71 157.676 368.515 159.594 367.433 161.576C366.203 163.791 365.171 166.112 364.35 168.509C364.35 168.536 364.35 168.568 364.35 168.6C364.35 167.789 364.351 165.523 364.308 165.347C363.993 162.899 361.94 158.349 359.215 157.848C358.761 157.777 358.297 157.802 357.853 157.923C357.41 158.043 356.997 158.255 356.641 158.545C356.284 158.835 355.993 159.197 355.786 159.607C355.579 160.017 355.461 160.466 355.439 160.925C355.284 162.872 356.692 164.819 358.068 166.051C359.62 167.437 363.935 168.776 364.271 168.883C363.497 171.346 362.889 173.858 362.452 176.403C362.19 177.88 361.967 179.379 361.764 180.883C361.764 180.184 361.764 179.555 361.732 179.469C361.412 177.021 359.359 172.472 356.639 171.971C356.184 171.899 355.72 171.924 355.277 172.043C354.833 172.163 354.419 172.375 354.063 172.666C353.707 172.956 353.416 173.318 353.209 173.729C353.002 174.139 352.884 174.589 352.863 175.048C352.703 176.995 354.116 178.941 355.492 180.173C356.868 181.405 360.537 182.637 361.508 182.947C361.433 183.528 361.358 184.104 361.289 184.68C360.958 187.459 360.639 190.232 360.222 192.941C360.084 193.896 359.908 194.829 359.743 195.768C359.743 195.144 359.743 194.621 359.705 194.541C359.391 192.088 357.337 187.544 354.617 187.037C354.163 186.966 353.698 186.992 353.254 187.112C352.81 187.233 352.396 187.445 352.039 187.736C351.683 188.027 351.391 188.389 351.184 188.8C350.977 189.211 350.858 189.66 350.836 190.12C350.681 192.067 352.089 194.013 353.465 195.245C354.841 196.477 358.159 197.587 359.332 197.96C359.129 198.915 358.927 199.869 358.692 200.787C358.511 201.405 358.388 202.019 358.159 202.632C357.929 203.245 357.764 203.848 357.572 204.451C357.156 205.592 356.735 206.776 356.297 207.88C356.004 208.648 355.705 209.379 355.412 210.109C355.561 209.165 355.817 207.299 355.817 207.139C355.781 204.967 355.19 202.841 354.1 200.963C354.105 200.72 354.089 200.477 354.052 200.237C353.995 199.781 353.842 199.342 353.604 198.948C353.365 198.555 353.047 198.216 352.669 197.954C352.291 197.692 351.863 197.512 351.411 197.427C350.959 197.342 350.494 197.352 350.047 197.459C347.38 198.173 345.678 202.867 345.556 205.331C345.556 205.48 345.641 207.064 345.716 208.067C345.583 207.485 345.46 206.92 345.316 206.323C345.033 205.139 344.719 203.971 344.383 202.707C344.201 202.104 344.02 201.491 343.849 200.877C343.679 200.264 343.417 199.635 343.199 199.005C342.665 197.56 342.068 196.12 341.423 194.685C342.457 194.435 346.121 193.501 347.593 192.376C349.065 191.251 350.607 189.416 350.596 187.459C350.608 186.999 350.523 186.543 350.347 186.119C350.171 185.694 349.908 185.312 349.574 184.996C349.241 184.68 348.845 184.438 348.411 184.285C347.978 184.132 347.518 184.072 347.06 184.109C344.308 184.408 341.919 188.787 341.423 191.208C341.391 191.357 341.225 193.133 341.156 194.115C340.761 193.251 340.377 192.392 339.95 191.533C338.718 189.059 337.396 186.589 336.089 184.125C335.689 183.368 335.3 182.611 334.905 181.853C335.273 181.768 339.652 180.755 341.305 179.491C342.767 178.365 344.324 176.525 344.308 174.573C344.32 174.114 344.235 173.657 344.059 173.233C343.883 172.809 343.62 172.426 343.286 172.111C342.953 171.795 342.557 171.552 342.123 171.4C341.69 171.247 341.23 171.187 340.772 171.224C338.02 171.523 335.636 175.901 335.135 178.323C335.097 178.504 334.868 181.064 334.841 181.715C333.972 180.045 333.124 178.376 332.356 176.696C331.307 174.433 330.406 172.104 329.657 169.725C329.828 169.683 334.399 168.659 336.089 167.352C337.551 166.227 339.103 164.387 339.092 162.435C339.104 161.975 339.019 161.519 338.843 161.095C338.667 160.67 338.404 160.288 338.07 159.972C337.737 159.656 337.341 159.414 336.907 159.261C336.474 159.108 336.014 159.048 335.556 159.085C332.804 159.384 330.414 163.763 329.918 166.184C329.876 166.376 329.631 169.123 329.625 169.624C329.577 169.491 329.519 169.352 329.481 169.213C328.795 166.805 328.326 164.34 328.079 161.848C327.924 160.472 327.854 159.149 327.817 157.864C328.686 157.757 332.665 157.229 334.313 156.232C335.961 155.235 337.636 153.619 337.833 151.677C337.898 151.221 337.866 150.757 337.739 150.314C337.612 149.872 337.393 149.461 337.097 149.109C336.8 148.756 336.433 148.471 336.018 148.27C335.604 148.069 335.152 147.958 334.692 147.944C331.924 147.944 329.071 152.035 328.292 154.381C328.249 154.509 327.972 155.859 327.785 156.84C327.785 156.259 327.753 155.661 327.759 155.101C327.759 153.011 327.892 151.096 328.025 149.4C328.105 148.435 328.201 147.565 328.297 146.733C329.097 146.2 332.297 143.923 333.279 142.307C334.26 140.691 335.028 138.456 334.308 136.643C334.154 136.209 333.911 135.813 333.594 135.48C333.277 135.147 332.893 134.885 332.468 134.71C332.043 134.535 331.585 134.452 331.126 134.467C330.666 134.481 330.215 134.591 329.801 134.792C327.343 136.061 326.697 141.005 327.103 143.443C327.14 143.656 328.068 146.883 328.111 146.856L328.159 146.824C328.052 147.603 327.945 148.424 327.844 149.357C327.679 151.053 327.503 152.973 327.455 155.075C327.378 157.337 327.432 159.602 327.615 161.859C327.81 164.38 328.231 166.879 328.873 169.325C328.873 169.352 328.873 169.384 328.9 169.411C328.463 168.728 327.183 166.856 327.071 166.744C325.471 164.877 321.23 162.216 318.686 163.299C318.269 163.49 317.896 163.767 317.592 164.112C317.289 164.457 317.061 164.862 316.924 165.3C316.788 165.739 316.745 166.202 316.798 166.658C316.852 167.114 317.001 167.554 317.236 167.949C318.148 169.693 320.399 170.536 322.228 170.803Z" fill="#263238"/>
<path d="M369.668 157.805C369.71 157.832 370.553 154.579 370.58 154.365C370.921 151.923 370.142 146.995 367.652 145.789C367.233 145.601 366.778 145.502 366.319 145.501C365.859 145.499 365.404 145.595 364.984 145.781C364.564 145.967 364.188 146.24 363.88 146.581C363.572 146.923 363.34 147.325 363.198 147.763C362.526 149.597 363.374 151.848 364.377 153.4C365.556 155.219 369.668 157.805 369.668 157.805Z" fill="#263238"/>
<path d="M363.379 246.467H336.835L333.518 216.984H366.697L363.379 246.467Z" fill="white" stroke="#263238" stroke-width="0.533333" stroke-linecap="round" stroke-linejoin="round"/>
<path d="M334.126 222.387L334.446 225.245H365.769L366.089 222.387H334.126Z" fill="#263238"/>
<path d="M365.06 231.528L365.38 228.669H334.831L335.156 231.528H365.06Z" fill="#263238"/>
<path d="M225.172 181.053H209.055V246.082H225.172V181.053Z" fill="#263238" stroke="#263238" stroke-width="0.533333" stroke-linecap="round" stroke-linejoin="round"/>
<path d="M322.921 73.7838H119.497V197.17H322.921V73.7838Z" fill="#263238" stroke="#263238" stroke-width="0.533333" stroke-linecap="round" stroke-linejoin="round"/>
<path d="M318.825 73.7838H115.401V197.17H318.825V73.7838Z" fill="#EA8901" stroke="#263238" stroke-width="0.533333" stroke-linecap="round" stroke-linejoin="round"/>
<path d="M311.433 78.1998H214.367V192.867H311.433V78.1998Z" fill="white" stroke="#263238" stroke-width="0.533333" stroke-linecap="round" stroke-linejoin="round"/>
<path d="M311.492 185.832H122.729V192.728H311.492V185.832Z" fill="white" stroke="#263238" stroke-width="0.533333" stroke-linecap="round" stroke-linejoin="round"/>
<path d="M217.993 238.786L158.233 242.648V246.541H275.993V242.648L217.993 238.786Z" fill="#263238" stroke="#263238" stroke-width="0.533333" stroke-linecap="round" stroke-linejoin="round"/>
<path d="M311.433 77.92H214.367V192.587H311.433V77.92Z" fill="white" stroke="#263238" stroke-width="0.533333" stroke-linecap="round" stroke-linejoin="round"/>
<path d="M132.217 95.7039H173.263" stroke="white" stroke-width="1.06667" stroke-linecap="round" stroke-linejoin="round"/>
<rect x="122.633" y="77.92" width="91.7333" height="115.2" fill="#263238"/>
<path d="M132.217 107.986H153.647" stroke="white" stroke-width="1.06667" stroke-linecap="round" stroke-linejoin="round"/>
<path d="M132.217 101.229H152.196" stroke="#EA8901" stroke-width="1.06667" stroke-linecap="round" stroke-linejoin="round"/>
<path d="M156.553 101.229H167.087" stroke="#EA8901" stroke-width="1.06667" stroke-linecap="round" stroke-linejoin="round"/>
<path d="M173.263 101.229H183.796" stroke="#EA8901" stroke-width="1.06667" stroke-linecap="round" stroke-linejoin="round"/>
<path d="M132.217 113.208H152.196" stroke="white" stroke-width="1.06667" stroke-linecap="round" stroke-linejoin="round"/>
<path d="M156.553 113.208H167.087" stroke="white" stroke-width="1.06667" stroke-linecap="round" stroke-linejoin="round"/>
<path d="M173.263 113.208H183.796" stroke="#EA8901" stroke-width="1.06667" stroke-linecap="round" stroke-linejoin="round"/>
<path d="M132.217 125.181H152.196" stroke="white" stroke-width="1.06667" stroke-linecap="round" stroke-linejoin="round"/>
<path d="M156.553 125.181H167.087" stroke="#EA8901" stroke-width="1.06667" stroke-linecap="round" stroke-linejoin="round"/>
<path d="M173.263 125.181H183.796" stroke="white" stroke-width="1.06667" stroke-linecap="round" stroke-linejoin="round"/>
<path d="M144.564 130.402H159.759" stroke="white" stroke-width="1.06667" stroke-linecap="round" stroke-linejoin="round"/>
<path d="M163.076 130.402H171.086" stroke="white" stroke-width="1.06667" stroke-linecap="round" stroke-linejoin="round"/>
<path d="M175.78 130.402H183.796" stroke="white" stroke-width="1.06667" stroke-linecap="round" stroke-linejoin="round"/>
<path d="M144.564 136.85H159.759" stroke="white" stroke-width="1.06667" stroke-linecap="round" stroke-linejoin="round"/>
<path d="M163.076 136.85H171.086" stroke="white" stroke-width="1.06667" stroke-linecap="round" stroke-linejoin="round"/>
<path d="M175.78 136.85H183.796" stroke="white" stroke-width="1.06667" stroke-linecap="round" stroke-linejoin="round"/>
<path d="M132.217 143.912H173.263" stroke="#EA8901" stroke-width="1.06667" stroke-linecap="round" stroke-linejoin="round"/>
<path d="M132.217 156.194H153.647" stroke="white" stroke-width="1.06667" stroke-linecap="round" stroke-linejoin="round"/>
<path d="M132.217 149.437H152.196" stroke="#EA8901" stroke-width="1.06667" stroke-linecap="round" stroke-linejoin="round"/>
<path d="M156.553 149.437H167.087" stroke="white" stroke-width="1.06667" stroke-linecap="round" stroke-linejoin="round"/>
<path d="M173.263 149.437H183.796" stroke="#EA8901" stroke-width="1.06667" stroke-linecap="round" stroke-linejoin="round"/>
<path d="M132.217 161.416H152.196" stroke="#EA8901" stroke-width="1.06667" stroke-linecap="round" stroke-linejoin="round"/>
<path d="M156.553 161.416H167.087" stroke="#EA8901" stroke-width="1.06667" stroke-linecap="round" stroke-linejoin="round"/>
<path d="M173.263 161.416H183.796" stroke="white" stroke-width="1.06667" stroke-linecap="round" stroke-linejoin="round"/>
<path d="M132.217 173.389H152.196" stroke="white" stroke-width="1.06667" stroke-linecap="round" stroke-linejoin="round"/>
<path d="M156.553 173.389H167.087" stroke="#EA8901" stroke-width="1.06667" stroke-linecap="round" stroke-linejoin="round"/>
<path d="M173.263 173.389H183.796" stroke="#EA8901" stroke-width="1.06667" stroke-linecap="round" stroke-linejoin="round"/>
<path d="M144.564 178.611H159.759" stroke="white" stroke-width="1.06667" stroke-linecap="round" stroke-linejoin="round"/>
<path d="M163.076 178.611H171.086" stroke="white" stroke-width="1.06667" stroke-linecap="round" stroke-linejoin="round"/>
<path d="M175.78 178.611H183.796" stroke="white" stroke-width="1.06667" stroke-linecap="round" stroke-linejoin="round"/>
<path d="M144.564 185.058H159.759" stroke="white" stroke-width="1.06667" stroke-linecap="round" stroke-linejoin="round"/>
<path d="M163.076 185.058H171.086" stroke="white" stroke-width="1.06667" stroke-linecap="round" stroke-linejoin="round"/>
<path d="M175.78 185.058H183.796" stroke="white" stroke-width="1.06667" stroke-linecap="round" stroke-linejoin="round"/>
<path d="M133.337 88.3331L137.193 86.3438V86.9198L133.945 88.5517L137.193 90.1784V90.7544L133.337 88.7651V88.3331Z" fill="white" stroke="white" stroke-width="0.533333" stroke-miterlimit="10"/>
<path d="M139.503 91.1065L141.834 85.0798H142.367L140.042 91.1065H139.503Z" fill="white" stroke="white" stroke-width="0.533333" stroke-miterlimit="10"/>
<path d="M148.537 88.7971L144.681 90.7758V90.1998L147.956 88.5731L144.681 86.9411V86.3651L148.537 88.3438V88.7971Z" fill="white" stroke="white" stroke-width="0.533333" stroke-miterlimit="10"/>
<circle cx="262.554" cy="137.25" r="31.0641" stroke="url(#paint0_linear_17_1542)" stroke-width="0.521114"/>
<path d="M280.193 123.367C280.193 123.367 277.838 129.459 273.964 127.861C266.422 124.744 275.833 116.327 275.833 116.327C275.833 116.327 269.849 113.023 265.733 120.442C265.733 120.442 258.937 105.478 266.295 100.242C266.295 100.242 245.346 109.717 266.421 138.646C287.493 167.576 255.197 166.328 253.078 167.077C253.078 167.077 296.417 178.83 280.193 123.367Z" fill="url(#paint1_linear_17_1542)"/>
<path d="M262.056 135.738C253.908 125.347 254.574 115.205 254.574 115.205C254.574 115.205 253.16 121.522 253.993 126.926C254.827 132.329 257.486 147.957 250.086 147.126C242.687 146.295 249.834 134.18 249.834 134.18C249.834 134.18 241.022 138.232 241.521 151.115C241.93 161.668 251.644 166.202 251.644 166.202C266.585 164.083 270.201 146.128 262.056 135.738Z" fill="url(#paint2_linear_17_1542)"/>
<path d="M258.221 165.331C281.914 160.653 267.103 142.449 267.103 142.449C271.427 158.492 258.221 165.331 258.221 165.331Z" fill="url(#paint3_linear_17_1542)"/>
<path d="M188.617 51.9652L172.431 76.5092" stroke="#263238" stroke-width="0.533333" stroke-miterlimit="10" stroke-dasharray="2.67 2.67"/>
<path d="M214.367 38.8773V33.304L208.82 32.6853C208.507 31.5228 208.041 30.4072 207.433 29.368L210.948 24.968L207.007 21.0266L202.633 24.5306C201.599 23.9217 200.486 23.4552 199.327 23.144L198.703 17.5493H193.145L192.527 23.1173C191.364 23.4209 190.249 23.8802 189.209 24.4826L184.815 20.968L180.873 24.9093L184.372 29.288C183.763 30.3227 183.297 31.435 182.985 32.5947L177.396 33.2186V38.792L182.959 39.4107C183.265 40.5721 183.724 41.6876 184.324 42.728L180.809 47.1227L184.751 51.064L189.129 47.5653C190.164 48.1743 191.276 48.6408 192.436 48.952L193.06 54.5413H198.633L199.252 48.9787C200.413 48.6727 201.529 48.2135 202.569 47.6133L206.964 51.128L210.905 47.1867L207.433 42.808C208.042 41.7732 208.509 40.6609 208.82 39.5013L214.367 38.8773ZM195.871 42.7013C194.554 42.6981 193.268 42.3045 192.175 41.5703C191.082 40.8361 190.231 39.7942 189.731 38.5764C189.23 37.3587 189.102 36.0198 189.362 34.7292C189.622 33.4385 190.26 32.254 191.193 31.3256C192.127 30.3972 193.315 29.7666 194.607 29.5135C195.899 29.2604 197.237 29.3962 198.452 29.9037C199.667 30.4112 200.704 31.2676 201.432 32.3647C202.16 33.4617 202.547 34.75 202.543 36.0667C202.537 37.8282 201.833 39.5157 200.586 40.7594C199.338 42.003 197.648 42.7013 195.887 42.7013H195.871Z" fill="#EA8901" stroke="#263238" stroke-width="0.533333" stroke-linecap="round" stroke-linejoin="round"/>
<path d="M236.292 27.6879L235.7 23.9973L231.967 24.2053C231.639 23.4696 231.212 22.7823 230.698 22.1626L232.5 18.8613L229.455 16.6853L226.943 19.4906C226.191 19.2056 225.403 19.0262 224.602 18.9573L223.567 15.3199L219.876 15.9386L220.084 19.6719C219.348 20.0009 218.659 20.4278 218.036 20.9413L214.74 19.1013L212.564 22.1466L215.37 24.6586C215.085 25.4107 214.905 26.1986 214.836 26.9999L211.167 28.0666L211.786 31.7573L215.519 31.5493C215.848 32.286 216.275 32.9749 216.788 33.5973L214.948 36.8933L217.994 39.0693L220.506 36.264C221.258 36.5489 222.046 36.7284 222.847 36.7973L223.882 40.4346L227.599 39.7999L227.391 36.0666C228.127 35.7389 228.814 35.3118 229.434 34.7973L232.735 36.5999L234.911 33.5546L232.106 31.0426C232.391 30.2905 232.57 29.5026 232.639 28.7013L236.292 27.6879ZM224.468 32.2693C223.598 32.4143 222.703 32.2979 221.899 31.9348C221.094 31.5717 220.415 30.9783 219.948 30.2295C219.481 29.4806 219.246 28.6101 219.273 27.7278C219.301 26.8455 219.589 25.9912 220.102 25.2727C220.614 24.5542 221.329 24.0039 222.154 23.6913C222.98 23.3786 223.879 23.3178 224.739 23.5163C225.599 23.7149 226.381 24.164 226.986 24.8068C227.591 25.4497 227.992 26.2574 228.138 27.1279C228.332 28.2962 228.055 29.4939 227.367 30.4579C226.679 31.4218 225.636 32.0734 224.468 32.2693Z" fill="#263238" stroke="#263238" stroke-width="0.533333" stroke-miterlimit="10"/>
<path d="M141.065 52.2214L141.327 53.5334" stroke="#263238" stroke-width="0.533333" stroke-miterlimit="10"/>
<path d="M141.817 55.9921L145.481 74.4347" stroke="#263238" stroke-width="0.533333" stroke-miterlimit="10" stroke-dasharray="2.51 2.51"/>
<path d="M145.727 75.6614L145.988 76.9734" stroke="#263238" stroke-width="0.533333" stroke-miterlimit="10"/>
<path d="M144.82 49.9333H152.351V21.896H144.82V49.9333Z" fill="#EA8901" stroke="#263238" stroke-width="0.533333" stroke-linecap="round" stroke-linejoin="round"/>
<path d="M134.777 49.9333H142.308V28.1734H134.777V49.9333Z" fill="#263238" stroke="#263238" stroke-width="0.533333" stroke-miterlimit="10"/>
<path d="M124.74 49.9333H132.271V33.1973H124.74V49.9333Z" fill="#EA8901" stroke="#263238" stroke-width="0.533333" stroke-linecap="round" stroke-linejoin="round"/>
<path d="M114.692 49.9333H122.223V37.3787H114.692V49.9333Z" fill="#263238" stroke="#263238" stroke-width="0.533333" stroke-miterlimit="10"/>
<path d="M118.217 35.5281L117.481 34.5628L125.183 28.7014L129.001 29.9761L135.305 23.1868L139.012 24.3174L145.737 16.6108L148.585 18.4508L151.54 16.3601L152.244 17.3521L148.617 19.9174L145.961 18.2001L139.412 25.7041L135.679 24.5681L129.359 31.3734L125.407 30.0561L118.217 35.5281Z" fill="#263238"/>
<path d="M152.858 19.6561L155.236 14.4934L149.572 15.0161L152.858 19.6561Z" fill="#263238"/>
<path d="M82.0303 51.2292L83.1396 51.9652" stroke="#263238" stroke-width="0.533333" stroke-miterlimit="10"/>
<path d="M85.3691 53.4374L119.934 76.2907" stroke="#263238" stroke-width="0.533333" stroke-miterlimit="10" stroke-dasharray="2.67 2.67"/>
<path d="M121.049 77.0267L122.159 77.7627" stroke="#263238" stroke-width="0.533333" stroke-miterlimit="10"/>
<path d="M46.1 28.36H84.82C85.7224 28.36 86.5879 28.7185 87.226 29.3566C87.8641 29.9947 88.2226 30.8602 88.2226 31.7627V58.2427H42.7026V31.7573C42.704 30.8567 43.0624 29.9934 43.6993 29.3566C44.3361 28.7198 45.1994 28.3614 46.1 28.36Z" fill="white" stroke="#263238" stroke-width="0.533333" stroke-linecap="round" stroke-linejoin="round"/>
<path d="M54.1851 40.3652H75.7477" stroke="#263238" stroke-width="0.533333" stroke-linecap="round" stroke-linejoin="round"/>
<path d="M54.1851 43.848H75.7477" stroke="#263238" stroke-width="0.533333" stroke-linecap="round" stroke-linejoin="round"/>
<path d="M54.1851 47.3253H75.7477" stroke="#263238" stroke-width="0.533333" stroke-linecap="round" stroke-linejoin="round"/>
<path d="M54.1851 50.8026H75.7477" stroke="#263238" stroke-width="0.533333" stroke-linecap="round" stroke-linejoin="round"/>
<path d="M88.2226 33.0747V31.144C88.2226 30.4056 87.9293 29.6975 87.4072 29.1754C86.8851 28.6533 86.177 28.36 85.4386 28.36H45.4813C45.116 28.36 44.7542 28.432 44.4167 28.572C44.0793 28.712 43.7727 28.9171 43.5146 29.1757C43.2565 29.4343 43.052 29.7413 42.9126 30.079C42.7733 30.4167 42.7019 30.7786 42.7026 31.144V33.0747H88.2226Z" fill="#EA8901" stroke="#263238" stroke-width="0.533333" stroke-linecap="round" stroke-linejoin="round"/>
<path d="M80.4358 30.84C80.4358 30.7005 80.3944 30.5642 80.3168 30.4483C80.2392 30.3324 80.1289 30.2422 80 30.1891C79.871 30.1359 79.7292 30.1223 79.5925 30.1499C79.4558 30.1775 79.3304 30.2451 79.2321 30.3441C79.1339 30.4431 79.0673 30.569 79.0407 30.7059C79.0142 30.8428 79.0289 30.9845 79.083 31.1131C79.1371 31.2416 79.2281 31.3512 79.3446 31.4279C79.4611 31.5046 79.5977 31.545 79.7372 31.544C79.923 31.5426 80.1006 31.4678 80.2315 31.3359C80.3624 31.204 80.4358 31.0258 80.4358 30.84Z" fill="#263238" stroke="#263238" stroke-width="0.533333" stroke-linecap="round" stroke-linejoin="round"/>
<path d="M83.2464 30.84C83.2464 30.7007 83.2051 30.5646 83.1277 30.4489C83.0504 30.3331 82.9404 30.2429 82.8118 30.1896C82.6831 30.1363 82.5416 30.1223 82.405 30.1495C82.2685 30.1767 82.143 30.2437 82.0446 30.3422C81.9461 30.4406 81.8791 30.5661 81.8519 30.7026C81.8247 30.8392 81.8387 30.9808 81.892 31.1094C81.9452 31.238 82.0355 31.348 82.1513 31.4253C82.267 31.5027 82.4031 31.544 82.5424 31.544C82.7291 31.544 82.9082 31.4698 83.0402 31.3378C83.1722 31.2058 83.2464 31.0267 83.2464 30.84Z" fill="#263238" stroke="#263238" stroke-width="0.533333" stroke-linecap="round" stroke-linejoin="round"/>
<path d="M86.0574 30.84C86.0574 30.7007 86.0161 30.5646 85.9388 30.4489C85.8614 30.3331 85.7515 30.2429 85.6228 30.1896C85.4942 30.1363 85.3526 30.1223 85.2161 30.1495C85.0795 30.1767 84.9541 30.2437 84.8556 30.3422C84.7572 30.4406 84.6901 30.5661 84.6629 30.7026C84.6358 30.8392 84.6497 30.9808 84.703 31.1094C84.7563 31.238 84.8465 31.348 84.9623 31.4253C85.0781 31.5027 85.2142 31.544 85.3534 31.544C85.5401 31.544 85.7192 31.4698 85.8512 31.3378C85.9832 31.2058 86.0574 31.0267 86.0574 30.84Z" fill="#263238" stroke="#263238" stroke-width="0.533333" stroke-linecap="round" stroke-linejoin="round"/>
<path d="M36.9265 64.5947C36.7456 64.4443 36.5965 64.2593 36.4881 64.0505C36.3797 63.8416 36.3141 63.6133 36.2952 63.3787C36.2764 63.1442 36.3046 62.9083 36.3782 62.6848C36.4518 62.4613 36.5693 62.2548 36.7239 62.0774L49.5239 47.4054L51.4759 49.0054L39.4332 64.3334C39.2876 64.5177 39.1065 64.6709 38.9007 64.7841C38.6949 64.8973 38.4686 64.9681 38.235 64.9925C38.0014 65.0169 37.7653 64.9942 37.5405 64.9259C37.3158 64.8576 37.1071 64.745 36.9265 64.5947Z" fill="#263238" stroke="#263238" stroke-width="0.533333" stroke-linejoin="round"/>
<path d="M46.1107 51.3093L36.7241 62.0773C36.5759 62.2552 36.4643 62.4606 36.3955 62.6816C36.3267 62.9026 36.3022 63.1351 36.3232 63.3656C36.3443 63.5961 36.4105 63.8203 36.5182 64.0252C36.6259 64.2301 36.7728 64.4119 36.9507 64.56C37.1286 64.7081 37.334 64.8198 37.555 64.8885C37.776 64.9573 38.0085 64.9819 38.239 64.9608C38.4695 64.9398 38.6937 64.8735 38.8986 64.7659C39.1035 64.6582 39.2853 64.5112 39.4334 64.3333L48.3134 53.0373L46.1107 51.3093Z" fill="white" stroke="#263238" stroke-width="0.533333" stroke-linejoin="round"/>
<path d="M60.1744 36.52C58.946 35.5027 57.4436 34.8725 55.8572 34.7091C54.2707 34.5456 52.6713 34.8563 51.2614 35.6018C49.8515 36.3473 48.6943 37.4942 47.9362 38.8973C47.178 40.3005 46.853 41.897 47.0022 43.4848C47.1513 45.0727 47.768 46.5807 48.7742 47.8182C49.7804 49.0556 51.1309 49.9668 52.655 50.4367C54.1791 50.9066 55.8083 50.914 57.3366 50.4579C58.8649 50.0019 60.2237 49.1029 61.241 47.8747C61.9166 47.0591 62.4249 46.1184 62.7369 45.1064C63.0489 44.0944 63.1585 43.0308 63.0595 41.9764C62.9604 40.922 62.6546 39.8975 62.1596 38.9613C61.6646 38.025 60.99 37.1955 60.1744 36.52ZM50.633 48.0453C49.5819 47.1746 48.8126 46.0117 48.4224 44.7037C48.0322 43.3957 48.0386 42.0014 48.4408 40.697C48.8431 39.3927 49.623 38.2369 50.6821 37.3759C51.7412 36.5148 53.0318 35.9872 54.3908 35.8596C55.7498 35.7321 57.1161 36.0104 58.3169 36.6593C59.5177 37.3083 60.4991 38.2987 61.137 39.5055C61.7749 40.7122 62.0407 42.081 61.9006 43.4387C61.7606 44.7965 61.2211 46.0822 60.3504 47.1333C59.7722 47.8313 59.0622 48.4085 58.261 48.8321C57.4597 49.2556 56.5829 49.5172 55.6806 49.6019C54.7782 49.6866 53.8681 49.5927 53.002 49.3256C52.1359 49.0586 51.331 48.6235 50.633 48.0453Z" fill="#263238" stroke="#263238" stroke-width="0.533333" stroke-linejoin="round"/>
<path d="M66.1055 114.579H67.4388" stroke="#263238" stroke-width="0.533333" stroke-miterlimit="10"/>
<path d="M70.1162 114.579H116.874" stroke="#263238" stroke-width="0.533333" stroke-miterlimit="10" stroke-dasharray="2.67 2.67"/>
<path d="M118.212 114.579H119.545" stroke="#263238" stroke-width="0.533333" stroke-miterlimit="10"/>
<path d="M44.1694 94.7333H74.3188" stroke="#263238" stroke-width="0.533333" stroke-linecap="round" stroke-linejoin="round"/>
<path d="M59.2466 109.587V94.7333" stroke="#263238" stroke-width="0.533333" stroke-linecap="round" stroke-linejoin="round"/>
<path d="M35.353 98.4293V117.219" stroke="#263238" stroke-width="0.533333" stroke-linecap="round" stroke-linejoin="round"/>
<path d="M64.3667 119.192H91.668V135.704" stroke="#263238" stroke-width="0.533333" stroke-linecap="round" stroke-linejoin="round"/>
<path d="M74.3184 119.475V135.405" stroke="#263238" stroke-width="0.533333" stroke-linecap="round" stroke-linejoin="round"/>
<path d="M49.572 88.4719H29.9453V101.843H49.572V88.4719Z" fill="#263238" stroke="#263238" stroke-width="0.533333" stroke-miterlimit="10"/>
<path d="M86.6921 88.4719H67.0654V101.843H86.6921V88.4719Z" fill="#EA8901" stroke="#263238" stroke-width="0.533333" stroke-linecap="round" stroke-linejoin="round"/>
<path d="M80.7777 131.421H68.2017V139.987H80.7777V131.421Z" fill="#EA8901" stroke="#263238" stroke-width="0.533333" stroke-linecap="round" stroke-linejoin="round"/>
<path d="M42.3831 112.936H29.8071V121.501H42.3831V112.936Z" fill="white" stroke="#263238" stroke-width="0.533333" stroke-linecap="round" stroke-linejoin="round"/>
<path d="M97.2786 131.421H84.7026V139.987H97.2786V131.421Z" fill="#263238" stroke="#263238" stroke-width="0.533333" stroke-miterlimit="10"/>
<path d="M59.2425 109.584L49.3506 119.476L59.2425 129.368L69.1345 119.476L59.2425 109.584Z" fill="#EA8901" stroke="#263238" stroke-width="0.533333" stroke-linecap="round" stroke-linejoin="round"/>
<path d="M95.6255 177.928L96.8895 177.496" stroke="#263238" stroke-width="0.533333" stroke-miterlimit="10"/>
<path d="M99.4229 176.632L118.41 170.152" stroke="#263238" stroke-width="0.533333" stroke-miterlimit="10" stroke-dasharray="2.68 2.68"/>
<path d="M119.673 169.72L120.937 169.288" stroke="#263238" stroke-width="0.533333" stroke-miterlimit="10"/>
<path d="M92.633 169.635H32.521V183.752H92.633V169.635Z" fill="white" stroke="#263238" stroke-width="0.533333" stroke-linecap="round" stroke-linejoin="round"/>
<path d="M92.4309 187.133H61.0122V205.827H92.4309V187.133Z" fill="white" stroke="#263238" stroke-width="0.533333" stroke-linecap="round" stroke-linejoin="round"/>
<path d="M61.0122 205.827L71.9509 197.08L76.5215 200.461L86.0682 193.101L92.2335 199.069V205.827H61.0122Z" fill="#263238" stroke="#263238" stroke-width="0.533333" stroke-linecap="round" stroke-linejoin="round"/>
<path d="M66.383 194.093C67.5906 194.093 68.5696 193.114 68.5696 191.907C68.5696 190.699 67.5906 189.72 66.383 189.72C65.1753 189.72 64.1963 190.699 64.1963 191.907C64.1963 193.114 65.1753 194.093 66.383 194.093Z" fill="#263238" stroke="#263238" stroke-width="0.533333" stroke-linecap="round" stroke-linejoin="round"/>
<path d="M92.4309 208.413H61.0122V227.107H92.4309V208.413Z" fill="white" stroke="#263238" stroke-width="0.533333" stroke-linecap="round" stroke-linejoin="round"/>
<path d="M61.0122 227.107L71.9509 218.355L76.5215 221.736L86.0682 214.376L92.2335 220.344V227.107H61.0122Z" fill="#263238" stroke="#263238" stroke-width="0.533333" stroke-linecap="round" stroke-linejoin="round"/>
<path d="M66.383 215.373C67.5906 215.373 68.5696 214.394 68.5696 213.187C68.5696 211.979 67.5906 211 66.383 211C65.1753 211 64.1963 211.979 64.1963 213.187C64.1963 214.394 65.1753 215.373 66.383 215.373Z" fill="#263238" stroke="#263238" stroke-width="0.533333" stroke-linecap="round" stroke-linejoin="round"/>
<path d="M33.4331 188.541H57.3158" stroke="#263238" stroke-width="0.533333" stroke-miterlimit="10"/>
<path d="M33.4331 193.848H57.3158" stroke="#263238" stroke-width="0.533333" stroke-miterlimit="10"/>
<path d="M33.4331 199.155H57.3158" stroke="#263238" stroke-width="0.533333" stroke-miterlimit="10"/>
<path d="M33.4331 204.461H57.3158" stroke="#263238" stroke-width="0.533333" stroke-miterlimit="10"/>
<path d="M33.4331 209.768H57.3158" stroke="#263238" stroke-width="0.533333" stroke-miterlimit="10"/>
<path d="M33.4331 215.075H57.3158" stroke="#263238" stroke-width="0.533333" stroke-miterlimit="10"/>
<path d="M33.4331 220.381H57.3158" stroke="#263238" stroke-width="0.533333" stroke-miterlimit="10"/>
<path d="M33.4331 225.688H57.3158" stroke="#263238" stroke-width="0.533333" stroke-miterlimit="10"/>
<path d="M46.3457 246.541H385.028" stroke="#263238" stroke-width="0.533333" stroke-miterlimit="10"/>
<path d="M28.7612 246.541H37.8759" stroke="#263238" stroke-width="0.533333" stroke-miterlimit="10"/>
<defs>
<linearGradient id="paint0_linear_17_1542" x1="262.554" y1="106.447" x2="262.554" y2="168.054" gradientUnits="userSpaceOnUse">
<stop stop-color="#FFC500"/>
<stop offset="1" stop-color="#C21500"/>
</linearGradient>
<linearGradient id="paint1_linear_17_1542" x1="252.581" y1="168.054" x2="276.404" y2="110.436" gradientUnits="userSpaceOnUse">
<stop stop-color="#C21500"/>
<stop offset="1" stop-color="#FFC500"/>
</linearGradient>
<linearGradient id="paint2_linear_17_1542" x1="252.581" y1="168.054" x2="276.404" y2="110.436" gradientUnits="userSpaceOnUse">
<stop stop-color="#C21500"/>
<stop offset="1" stop-color="#FFC500"/>
</linearGradient>
<linearGradient id="paint3_linear_17_1542" x1="252.581" y1="168.054" x2="276.404" y2="110.436" gradientUnits="userSpaceOnUse">
<stop stop-color="#C21500"/>
<stop offset="1" stop-color="#FFC500"/>
</linearGradient>
</defs>
</svg>
